<?xml version="1.0" encoding="UTF-8" standalone="no"?>
<svg width="43px" height="39px" viewBox="0 0 43 39" version="1.1" xmlns="http://www.w3.org/2000/svg" xmlns:xlink="http://www.w3.org/1999/xlink" xmlns:sketch="http://www.bohemiancoding.com/sketch/ns">
    <!-- Generator: sketchtool 3.5.2 (25235) - http://www.bohemiancoding.com/sketch -->
    <title>Collect Icon</title>
    <desc>Created with sketchtool.</desc>
    <defs></defs>
    <g id="Homepage" stroke="none" stroke-width="1" fill="none" fill-rule="evenodd" sketch:type="MSPage">
        <g id="Desktop-Retina---Simplified" sketch:type="MSArtboardGroup" transform="translate(-934.000000, -2269.000000)" fill="#44A7F0">
            <g id="Columns" sketch:type="MSLayerGroup" transform="translate(374.000000, 2255.000000)">
                <g id="Column-2" transform="translate(450.000000, 14.000000)" sketch:type="MSShapeGroup">
                    <g id="Collect-Icon" transform="translate(110.000000, 0.000000)">
                        <path d="M3.23257382,15.3483595 C3.36875252,15.4020531 3.45938518,15.4425045 3.55297112,15.4740618 C9.34748954,17.4265976 15.1425986,19.3772887 20.9356076,21.3342385 C21.1666191,21.4122425 21.3692793,21.4171177 21.6018003,21.3385208 C27.2323793,19.4341446 32.8650583,17.5361588 38.4973436,15.6368555 C38.7606443,15.5481128 39.02342,15.4577231 39.3280009,15.3539595 C39.1887376,15.2778661 39.0941017,15.2225255 38.9964468,15.173246 C36.9728641,14.1510915 34.9476408,13.1320993 32.9270771,12.1038837 C32.7410209,12.0092117 32.5890258,12.0036777 32.3936503,12.0756205 C28.8281311,13.3874568 25.2588054,14.6888838 21.6938768,16.0021695 C21.4010434,16.1100178 21.1431899,16.1094908 20.8525222,16.0024989 C17.2873967,14.689872 13.718596,13.387325 10.1536018,12.0744346 C9.95704508,12.0020965 9.80531247,12.0108588 9.62010945,12.1050696 C7.6709493,13.0968526 5.71712954,14.0794781 3.76508175,15.0655953 C3.5983859,15.1497921 3.43497146,15.2407088 3.23257382,15.3483595 M39.3349575,22.9437283 C39.1872282,22.8640115 39.1097212,22.8198049 39.0301797,22.779617 C36.9792957,21.7441544 34.9265741,20.7122495 32.8793653,19.669474 C32.6652202,19.5603739 32.4847424,19.5495034 32.2581936,19.6263215 C28.7833726,20.8052744 25.3043514,21.9717098 21.8304493,23.153298 C21.4490177,23.2830191 21.1039441,23.2857202 20.7223156,23.1559333 C17.2492666,21.9745427 13.7714268,20.8075144 10.2973277,19.6290885 C10.0733384,19.5531269 9.89246684,19.5559598 9.67576223,19.6664434 C7.62875031,20.7096142 5.57556932,21.7405968 3.5246197,22.7760594 C3.44068112,22.8184872 3.36146778,22.8703361 3.23867725,22.9418836 C3.36947443,22.9907679 3.45006597,23.0235769 3.53229821,23.0513131 C9.35562745,25.0143241 15.1786285,26.9782574 21.0047798,28.9327696 C21.1682599,28.9875832 21.3817487,28.9886373 21.5450319,28.9339555 C26.3259214,27.3322398 31.1033982,25.7204441 35.8813344,24.1099002 C37.009616,23.7295652 38.1375694,23.3481102 39.3349575,22.9437283 M39.3320698,30.6431902 C39.1804685,30.5598498 39.0793353,30.5000952 38.9746582,30.4473239 C36.9238398,29.4127178 34.8727589,28.3787046 32.8212843,27.3452843 C32.6311591,27.2495582 32.4726012,27.1374935 32.2135007,27.2259067 C28.7329045,28.4139513 25.2456798,29.582429 21.762524,30.7629631 C21.4329387,30.8746326 21.126389,30.8790467 20.7958193,30.7669819 C17.368907,29.6053559 13.9387133,28.4537438 10.512326,27.2906684 C10.2229709,27.1924388 9.99379692,27.1925047 9.70365426,27.3423197 C7.65388594,28.4008408 5.58987629,29.4314941 3.53059187,30.4715025 C3.43818725,30.5181467 3.34821086,30.5696003 3.22633913,30.6354162 C3.328588,30.6758016 3.38358451,30.7003755 3.44035298,30.7195471 C9.30017154,32.6956685 15.159662,34.6727782 21.0226307,36.6396103 C21.185192,36.6941603 21.3994683,36.6817087 21.5649172,36.6262363 C26.2973074,35.0394757 31.0265475,33.4431622 35.7563126,31.8484299 C36.929812,31.4528103 38.103377,31.0573225 39.3320698,30.6431902 M34.984852,11.1406934 C35.8930163,11.6016017 36.7409994,12.034115 37.5908857,12.4628072 C39.0419928,13.1946869 40.4951343,13.9228114 41.9459133,14.6554818 C42.4649018,14.917625 42.6637555,15.3377526 42.5019161,15.8097949 C42.394942,16.1217447 42.1634054,16.295343 41.8613184,16.3966032 C40.5393678,16.8395258 39.2180735,17.2844908 37.8970417,17.730444 C37.01421,18.0284269 36.1322314,18.3289792 35.2501216,18.6291362 C35.1774054,18.6539077 35.1067894,18.6846744 34.9951557,18.7282881 C35.1424256,18.808532 35.2534686,18.8729643 35.3677931,18.9306767 C37.562403,20.0380821 39.7578005,21.1439063 41.9520823,22.2519047 C42.4796025,22.5183302 42.6756342,22.95394 42.4894467,23.4358646 C42.3610122,23.7684354 42.0837327,23.9127822 41.7672074,24.0186541 C40.0945393,24.5782532 38.4236431,25.1432546 36.7522218,25.7065431 C36.1350534,25.9145316 35.5180162,26.1230471 34.846967,26.3495484 C34.9979777,26.4320982 35.1061331,26.4953446 35.2177668,26.5516076 C37.4663889,27.6854974 39.715864,28.8176084 41.963961,29.9524206 C42.4824902,30.2141686 42.6780624,30.6660511 42.4851809,31.1446817 C42.3620622,31.4501751 42.1119528,31.6003194 41.8128191,31.7000643 C40.3006777,32.2044546 38.7899802,32.713193 37.2794795,33.2224585 C32.1213586,34.9614717 26.9627783,36.6991014 21.8072169,38.4457569 C21.4462613,38.5680333 21.1173979,38.5745556 20.7555892,38.4522133 C14.0896584,36.1980711 7.4215618,33.9503854 0.752546451,31.7055984 C0.335872451,31.5653363 0.0369356004,31.336595 0.00379331504,30.8691644 C-0.0292177137,30.4043032 0.2255513,30.1302353 0.620830477,29.9321291 C2.87220889,28.8036415 5.11945272,27.666787 7.36787786,26.5323042 C7.46441708,26.4835518 7.55852804,26.4298582 7.7029759,26.3518543 C6.87159675,26.0698147 6.09075138,25.8032574 5.30885596,25.54006 C3.78824853,25.0280934 2.26783799,24.5157973 0.745589852,24.0087718 C0.33016279,23.8704202 0.0325385051,23.6331144 0.0023494927,23.1659473 C-0.0277738914,22.700559 0.233492322,22.4285335 0.626277625,22.231086 C2.87627784,21.1001609 5.12260288,19.9619887 7.36997797,18.825793 C7.42287437,18.799045 7.47301438,18.7668289 7.55550914,18.7192623 C7.3396577,18.6429054 7.15412653,18.5747179 6.96695465,18.5115373 C4.88752235,17.8092385 2.80887759,17.1045679 0.727345188,16.4085278 C0.317430903,16.271428 0.0359511761,16.0326727 0.00313703216,15.5846113 C-0.0306615361,15.1235053 0.222598027,14.8425199 0.618533487,14.6440183 C2.81596545,13.5423446 5.00945971,12.432831 7.20420091,11.3258209 C7.30224958,11.2763438 7.39931381,11.2250219 7.55596854,11.1439874 C7.41237384,11.0855504 7.31780348,11.0437155 7.22093613,11.0080735 C5.0945796,10.2266507 2.96796056,9.44601853 0.841472781,8.66492516 C0.449475018,8.52090777 0.283894847,8.33624139 0.294592258,8.03694085 C0.306996005,7.68967844 0.535841844,7.53933641 0.832153564,7.43010456 C7.48259611,4.97871259 14.1308729,2.52139127 20.7844,0.0784980389 C20.9894884,0.00319526218 21.269393,0.00431525099 21.4752034,0.0788274474 C28.2344576,2.52508064 34.9887241,4.98536664 41.7448282,7.44057975 C42.0341833,7.54572693 42.2407155,7.70786178 42.2550225,8.03615027 C42.2676888,8.3250415 42.0973834,8.52426774 41.7363621,8.65675583 C39.600227,9.44048447 37.4636325,10.2230272 35.3273661,11.0064265 C35.2351583,11.0402238 35.1443944,11.077974 34.984852,11.1406934" id="Fill-1"></path>
                    </g>
                </g>
            </g>
        </g>
    </g>
</svg>