<?xml version="1.0" encoding="UTF-8" standalone="no"?>
<svg width="41px" height="39px" viewBox="0 0 41 39" version="1.1" xmlns="http://www.w3.org/2000/svg" xmlns:xlink="http://www.w3.org/1999/xlink" xmlns:sketch="http://www.bohemiancoding.com/sketch/ns">
    <!-- Generator: Sketch 3.5.2 (25235) - http://www.bohemiancoding.com/sketch -->
    <title>Create Account Icon</title>
    <desc>Created with Sketch.</desc>
    <defs></defs>
    <g id="Homepage" stroke="none" stroke-width="1" fill="none" fill-rule="evenodd" sketch:type="MSPage">
        <g id="Desktop-Retina---Simplified" sketch:type="MSArtboardGroup" transform="translate(-504.000000, -2255.000000)" fill="#44A7F0">
            <g id="Columns" sketch:type="MSLayerGroup" transform="translate(374.000000, 2255.000000)">
                <g id="Column-1" sketch:type="MSShapeGroup">
                    <g id="Create-Account-Icon" transform="translate(130.000000, 0.000000)">
                        <path d="M32.3847594,38.6041807 L32.3584804,38.6041807 C31.7454868,38.6041807 31.2290329,38.1460998 31.1559684,37.5373415 C31.0904908,36.9912738 31.0109941,36.4057771 30.9548625,36.1710175 C30.4942102,34.243723 29.51463,32.5627364 28.1059542,31.0986921 C25.7504645,28.6507911 22.8290415,27.2960703 19.5030427,26.780468 C16.0203594,26.2405594 12.6607697,26.66812 9.47820591,28.2128371 C6.90253327,29.4630187 4.84787771,31.2896233 3.51177158,33.858891 C3.01835297,34.807663 2.67886997,35.7982837 2.4992601,36.8301481 C2.46990238,36.9987527 2.44213899,37.2444557 2.41789413,37.4995072 C2.35873887,38.1218484 1.83700711,38.5975267 1.21202853,38.5975267 L1.21202853,38.5975267 C0.49045535,38.5975267 -0.0751480667,37.9699063 0.00814209428,37.2529794 C0.0117155995,37.222184 0.0155090128,37.1913887 0.0195223341,37.1606483 C0.592932485,32.764611 2.94407904,29.5129511 6.56794323,27.1149826 C9.2243221,25.3572276 12.1754327,24.4332569 15.3459565,24.2138949 C19.5676956,23.921834 23.5088321,24.8126997 27.068978,27.1408287 C30.047687,29.0887451 32.180245,31.7115197 33.1836853,35.1766024 C33.3825371,35.8632289 33.5179454,36.559259 33.5900753,37.2723365 C33.6622601,37.985359 33.1012198,38.6041807 32.3847594,38.6041807" id="Fill-1"></path>
                        <path d="M10.7751849,13.3050464 C10.7573174,16.5499972 13.4325534,19.2764312 16.6172063,19.3364272 C20.0467817,19.4010974 22.8114653,16.7079334 22.8195469,13.3279779 C22.8275186,10.0098331 20.1647074,7.30281116 16.8814807,7.28884326 C13.4769748,7.27432545 10.7938221,9.91794195 10.7751849,13.3050464 M25.2298487,13.3019668 C25.2306184,17.9564652 21.420767,21.7631014 16.7774093,21.7474287 C12.1151394,21.7316461 8.36405844,17.9344135 8.365103,13.2317424 C8.36614757,8.67342455 12.1934267,4.87509212 16.7906587,4.8698679 C21.4257699,4.8645887 25.2290791,8.66473586 25.2298487,13.3019668" id="Fill-4"></path>
                        <path d="M36.0706817,7.25996712 C36.0706817,8.52307171 36.0758495,9.74537246 36.0684826,10.9676182 C36.0647991,11.5785761 35.6097545,12.070532 35.0057221,12.1458156 C34.4268693,12.2179647 33.8649493,11.8414365 33.7113985,11.2668831 C33.6777526,11.1410621 33.6730246,11.0047376 33.6726947,10.8731974 C33.6697809,9.78271183 33.6710454,8.69228121 33.6710454,7.60179559 L33.6710454,7.25996712 L33.3432175,7.25996712 C32.2625346,7.25996712 31.1818516,7.26046204 30.1011686,7.25980214 C29.3603535,7.25936221 28.8156413,6.75646301 28.8153115,6.07456581 C28.8149816,5.36467782 29.3454547,4.86238353 30.1056767,4.86051381 C31.1768487,4.85776423 32.2480756,4.85979892 33.3193025,4.85979892 L33.6568613,4.85979892 C33.6622491,4.73793729 33.6703857,4.63752243 33.6704956,4.53705257 C33.6714302,3.45608052 33.669561,2.37510847 33.6715952,1.29413642 C33.6729696,0.554882856 34.1790329,0.0223431319 34.8727328,0.0239928833 C35.5585159,0.0255876429 36.0691423,0.568630783 36.0703518,1.30271513 C36.0720561,2.3742286 36.0707916,3.44574208 36.0707916,4.51725556 L36.0707916,4.85979892 L36.3977948,4.85979892 C37.4690218,4.85979892 38.5402487,4.85770924 39.6114756,4.86205358 C39.7708539,4.86265849 39.9364447,4.87107222 40.0884011,4.91402075 C40.7146992,5.09098407 40.9992051,5.60686131 40.906294,6.36772661 C40.8492279,6.83466123 40.3179851,7.25749249 39.7687648,7.25936221 C38.6501477,7.26326662 37.5315306,7.26018708 36.4129135,7.25996712 L36.0706817,7.25996712" id="Fill-6"></path>
                    </g>
                </g>
            </g>
        </g>
    </g>
</svg>