<?xml version="1.0" encoding="UTF-8" standalone="no"?>
<svg width="26px" height="26px" viewBox="0 0 26 26" version="1.1" xmlns="http://www.w3.org/2000/svg" xmlns:xlink="http://www.w3.org/1999/xlink" xmlns:sketch="http://www.bohemiancoding.com/sketch/ns">
    <!-- Generator: Sketch 3.5.2 (25235) - http://www.bohemiancoding.com/sketch -->
    <title>First Icon</title>
    <desc>Created with Sketch.</desc>
    <defs>
        <path id="path-1" d="M0,0.00104 L26,0.00104 L26,26 L0,26"></path>
    </defs>
    <g id="Homepage" stroke="none" stroke-width="1" fill="none" fill-rule="evenodd" sketch:type="MSPage">
        <g id="Mobile-Dashboard" sketch:type="MSArtboardGroup" transform="translate(-34.000000, -629.000000)">
            <g id="First-Icon" sketch:type="MSLayerGroup" transform="translate(34.000000, 629.000000)">
                <g id="Group-3">
                    <mask id="mask-2" sketch:name="Clip 2" fill="white">
                        <use xlink:href="#path-1"></use>
                    </mask>
                    <g id="Clip-2"></g>
                    <path d="M12.736828,0.812032 C6.014268,0.937872 0.666068,6.517472 0.817908,13.301392 C0.968188,20.039032 6.589908,25.443912 13.489268,25.178192 C20.039188,24.925992 25.282348,19.509672 25.187188,12.800112 C25.092028,6.052072 19.510348,0.685672 12.736828,0.812032 M13.080548,0.001352 C20.294508,0.049712 26.034268,5.940272 25.999948,13.050232 C25.964588,20.284472 20.075068,26.017472 12.983308,25.999792 C5.719428,25.982112 -0.050492,20.057232 0.000468,12.914512 C0.051948,5.714592 5.938348,-0.049088 13.080548,0.001352" id="Fill-1" fill="#FFFFFF" sketch:type="MSShapeGroup" mask="url(#mask-2)"></path>
                </g>
                <path d="M12.932244,2.153996 C17.396444,2.344836 20.727564,4.328636 22.779484,8.347716 C22.945884,8.673756 22.827844,8.963396 22.522084,9.007596 C22.271444,9.043476 22.137804,8.894756 22.041604,8.690396 C21.654724,7.869836 21.165404,7.114796 20.565324,6.434636 C18.883124,4.529876 16.785444,3.377556 14.260844,3.071796 C11.061804,2.683876 8.293844,3.648996 5.965804,5.866276 C5.123404,6.668116 4.470284,7.615556 3.966404,8.664396 C3.937284,8.724716 3.909724,8.785556 3.879044,8.844836 C3.745404,9.106396 3.528564,9.198956 3.311204,9.089236 C3.090724,8.977436 3.029884,8.760076 3.152604,8.490196 C3.577444,7.556796 4.121364,6.698276 4.797364,5.927116 C6.662084,3.801356 9.005724,2.577796 11.808524,2.232516 C12.180324,2.186236 12.557324,2.178956 12.932244,2.153996" id="Fill-4" fill="#FFFFFF" sketch:type="MSShapeGroup"></path>
                <path d="M10.433956,13.228696 C10.434476,11.644776 11.512436,10.492456 12.825436,10.437336 C13.143676,10.423816 13.331916,10.556936 13.349076,10.807056 C13.366236,11.055616 13.189436,11.219936 12.878476,11.244896 C12.007996,11.315616 11.304436,12.000456 11.246196,12.834536 C11.181716,13.760656 11.756316,14.532336 12.652276,14.722656 C13.687076,14.942616 14.702116,14.163656 14.755676,13.108576 C14.757756,13.066976 14.755676,13.024856 14.760356,12.983776 C14.787916,12.744576 14.950676,12.589616 15.169596,12.592736 C15.402556,12.595336 15.564276,12.758616 15.565316,13.016016 C15.567396,13.759096 15.289716,14.394536 14.740596,14.882816 C13.923156,15.609776 12.974156,15.783976 11.971076,15.344576 C10.966956,14.904656 10.474516,14.085656 10.433956,13.228696" id="Fill-6" fill="#FFFFFF" sketch:type="MSShapeGroup"></path>
                <path d="M17.794868,8.633768 C17.711148,8.776768 17.668508,8.898968 17.586348,8.981648 C16.167788,10.407488 14.745068,11.829168 13.321308,13.249808 C13.128388,13.442208 12.891268,13.453128 12.721748,13.290368 C12.551708,13.126568 12.551708,12.881128 12.741508,12.690808 C14.167348,11.260288 15.596828,9.833408 17.024228,8.404448 C17.164628,8.263528 17.335188,8.209968 17.500028,8.305648 C17.615468,8.372208 17.688788,8.511048 17.794868,8.633768" id="Fill-8" fill="#FFFFFF" sketch:type="MSShapeGroup"></path>
            </g>
        </g>
    </g>
</svg>