<?xml version="1.0" encoding="UTF-8" standalone="no"?>
<svg width="37px" height="24px" viewBox="0 0 37 24" version="1.1" xmlns="http://www.w3.org/2000/svg" xmlns:xlink="http://www.w3.org/1999/xlink" xmlns:sketch="http://www.bohemiancoding.com/sketch/ns">
    <!-- Generator: Sketch 3.5.2 (25235) - http://www.bohemiancoding.com/sketch -->
    <title>Fourth Icon</title>
    <desc>Created with Sketch.</desc>
    <defs></defs>
    <g id="Homepage" stroke="none" stroke-width="1" fill="none" fill-rule="evenodd" sketch:type="MSPage">
        <g id="Mobile-Dashboard" sketch:type="MSArtboardGroup" transform="translate(-307.000000, -630.000000)" fill="#FFFFFF">
            <g id="Fourth-Icon" sketch:type="MSLayerGroup" transform="translate(307.000000, 630.000000)">
                <path d="M24.7567,22.19544 C30.4727132,22.1724 35.0865158,17.60568 35.0811605,11.99544 C35.0753184,6.41064 30.4337658,1.71192 24.5371342,1.82568 C18.8756474,1.93464 14.3358447,6.5388 14.4234763,12.17064 C14.5086737,17.65512 19.0280289,22.17336 24.7567,22.19544 M35.2724895,6.0012 C35.9238842,7.1292 36.4185158,8.29752 36.6468447,9.55464 C37.5251079,14.38968 36.0446211,18.40344 32.1713053,21.47832 C29.6246342,23.4996 26.6393184,24.2676 23.3925684,23.91864 C18.2963053,23.37096 14.0968053,19.6932 12.9205947,14.76024 C12.2117526,11.78664 12.6207,8.94216 14.0968053,6.25512 C14.2180289,6.0348 14.1761605,5.9268 14.0155026,5.77224 C13.4814368,5.25912 13.3733579,4.69848 13.6941868,4.1628 C13.7642921,4.04568 13.8567921,3.93864 13.9541605,3.84168 C14.7165553,3.0852 15.4813842,2.33112 16.2476737,1.57848 C16.8362658,1.00104 17.5597132,0.9876 18.1468447,1.57128 C18.3357395,1.75944 18.4593974,1.758 18.6843184,1.63656 C22.7645421,-0.56472 26.8428184,-0.54072 30.9069763,1.68072 C31.0841868,1.7772 31.1732789,1.75176 31.3061868,1.62024 C31.9575816,0.97608 32.6508447,0.98232 33.3051605,1.626 C34.0247132,2.33352 34.7428053,3.04248 35.4613842,3.75144 C36.1663316,4.44696 36.1663316,5.106 35.4628447,5.80536 C35.4039368,5.86344 35.3474632,5.92392 35.2724895,6.0012" id="Fill-1" sketch:type="MSShapeGroup"></path>
                <path d="M6.64111053,6.611664 C5.28038684,6.611664 3.92015,6.609744 2.55942632,6.613104 C2.23421579,6.613584 1.94892632,6.535824 1.75711053,6.256464 C1.42459737,5.771664 1.70599211,5.129904 2.29604474,5.027184 C2.38708421,5.011344 2.48201842,5.012304 2.57500526,5.012304 C5.29596579,5.011824 8.01692632,5.010864 10.7378868,5.012304 C11.2656237,5.012784 11.6117684,5.269104 11.6750579,5.694864 C11.7495447,6.194544 11.3712684,6.602544 10.8065316,6.609264 C10.0519263,6.617904 9.29683421,6.611664 8.54222895,6.611664 L6.64111053,6.611664" id="Fill-3" sketch:type="MSShapeGroup"></path>
                <path d="M6.64914342,19.300752 C5.25141974,19.300752 3.85369605,19.301232 2.45645921,19.300272 C2.09522237,19.299792 1.82940658,19.138992 1.67945921,18.814512 C1.54460395,18.522672 1.59961711,18.157872 1.85813026,17.959152 C2.02316974,17.831952 2.25441974,17.721552 2.45694605,17.720592 C5.25190658,17.705232 8.04735395,17.707632 10.8423145,17.712912 C11.343275,17.713872 11.6884461,18.064272 11.6791961,18.521712 C11.6704329,18.978192 11.3199066,19.298832 10.8140776,19.299792 C9.42560395,19.302672 8.03761711,19.300752 6.64914342,19.300752" id="Fill-5" sketch:type="MSShapeGroup"></path>
                <path d="M5.02192237,15.061584 C3.61543553,15.061584 2.20894868,15.064944 0.801975,15.059664 C0.383290789,15.058224 0.0780407895,14.785584 0.0123171053,14.383344 C-0.0456171053,14.026704 0.174435526,13.654704 0.533238158,13.537584 C0.662738158,13.495344 0.807330263,13.482864 0.945106579,13.482864 C3.67434342,13.479504 6.40358026,13.479504 9.13281711,13.483824 C9.28763289,13.483824 9.45315921,13.503504 9.59531711,13.559184 C9.94633026,13.697424 10.1293829,14.073264 10.0534355,14.440944 C9.97846184,14.803824 9.66980395,15.058224 9.26961974,15.059664 C7.85388289,15.064464 6.43765921,15.061584 5.02192237,15.061584" id="Fill-7" sketch:type="MSShapeGroup"></path>
                <path d="M5.04728684,9.250896 C6.42602368,9.250896 7.80476053,9.248016 9.18301053,9.252336 C9.71658947,9.254256 10.0637079,9.572016 10.0656553,10.039536 C10.0671158,10.450416 9.77160263,10.780656 9.35827368,10.826736 C9.29352368,10.833936 9.2278,10.832496 9.16305,10.832496 C6.41482632,10.832496 3.66708947,10.830096 0.918865789,10.834896 C0.525984211,10.835856 0.223168421,10.705776 0.0649447368,10.340976 C-0.153647368,9.837936 0.204181579,9.280656 0.771839474,9.260016 C1.35799737,9.238896 1.94561579,9.251376 2.53226053,9.250896 C3.37060263,9.250416 4.20894474,9.250896 5.04728684,9.250896" id="Fill-9" sketch:type="MSShapeGroup"></path>
                <path d="M24.7331368,12.934032 C24.5773474,12.880272 24.4084132,12.849072 24.2682026,12.768912 C22.5769132,11.804592 20.8885447,10.834512 19.2021237,9.861072 C18.8379658,9.650832 18.6665974,9.271152 18.7449789,8.905392 C18.8282289,8.516112 19.1164395,8.224272 19.5268474,8.189712 C19.7181763,8.173392 19.9450447,8.216112 20.1105711,8.309712 C21.8135447,9.272592 23.5097026,10.248432 25.2029395,11.227632 C25.5924132,11.452752 25.7447947,11.846832 25.6294132,12.239952 C25.50965,12.649392 25.1678868,12.905232 24.7331368,12.934032" id="Fill-11" sketch:type="MSShapeGroup"></path>
            </g>
        </g>
    </g>
</svg>