<?xml version="1.0" encoding="UTF-8" standalone="no"?>
<svg width="44px" height="18px" viewBox="0 0 44 18" version="1.1" xmlns="http://www.w3.org/2000/svg" xmlns:xlink="http://www.w3.org/1999/xlink" xmlns:sketch="http://www.bohemiancoding.com/sketch/ns">
    <!-- Generator: Sketch 3.5.2 (25235) - http://www.bohemiancoding.com/sketch -->
    <title>Glasses</title>
    <desc>Created with Sketch.</desc>
    <defs>
        <linearGradient x1="50%" y1="0%" x2="50%" y2="100%" id="linearGradient-1">
            <stop stop-color="#FFFCFC" offset="0%"></stop>
            <stop stop-color="#FFFFFF" stop-opacity="0" offset="100%"></stop>
        </linearGradient>
    </defs>
    <g id="Homepage" stroke="none" stroke-width="1" fill="none" fill-rule="evenodd" sketch:type="MSPage">
        <g id="Mobile-Alerts" sketch:type="MSArtboardGroup" transform="translate(-17.000000, -435.000000)">
            <g id="Glasses" sketch:type="MSLayerGroup" transform="translate(17.000000, 435.000000)">
                <path d="M22.0507119,1.56388027 C18.4537872,1.56388027 14.3876985,0 10.7907739,0 C7.19384926,0 0.62555211,1.7202683 0.62555211,1.7202683 C0.62555211,1.7202683 6.2505212e-16,1.87665633 0,2.65859647 L0,4.53525279 C0,4.53525279 0,5.00441688 0.62555211,5.31719293 C1.25110422,5.62996899 1.40749225,6.88107321 1.7202683,8.75772953 C2.03304436,10.6343859 1.7202683,16.5771309 10.0088338,17.046295 C18.2973992,17.5154591 19.7048915,11.1035499 19.7048915,11.1035499 C19.7048915,11.1035499 20.7996076,7.66301334 21.1123837,6.72468518 C21.4251598,5.78635701 21.2687717,5.47358096 21.8943238,5.47358096 C22.5198759,5.47358096 22.5198759,5.94274504 22.676264,6.56829715 C22.832652,7.19384926 23.6145921,10.3216098 24.0837562,11.259938 C24.5529203,12.1982661 25.8040245,17.359071 33.4670379,17.046295 C41.1300512,16.7335189 41.7556033,11.7291021 42.2247674,8.44495348 C42.6939315,5.1608049 43.4758716,5.31719293 43.4758716,5.31719293 C43.4758716,5.31719293 43.9450357,5.00441688 43.9450357,4.37886477 C43.9450357,3.75331266 44.2578118,2.03304436 43.1630956,1.7202683 C42.0683794,1.40749225 36.7511864,0.156388027 32.9978738,0.156388027 C29.2445611,0.156388027 25.6476365,1.56388027 22.0507119,1.56388027 Z M4.06608871,3.75331266 C4.06608871,3.75331266 5.47358096,1.7202683 11.1035499,1.87665633 C16.7335189,2.03304436 17.6718471,3.1277604 18.6101753,4.53525279 C18.6101753,4.53525294 4.06608871,3.75331266 4.06608871,3.75331266 Z M39.722559,3.76189362 C39.722559,3.76189362 38.3150667,1.72884926 32.6850977,1.88523729 C27.0551287,2.04162532 26.1168006,3.13634137 25.1784724,4.54383376 C25.1784724,4.5438339 39.722559,3.76189362 39.722559,3.76189362 Z M3.4405366,5.94274504 C3.4405366,5.94274504 2.97137252,9.85244573 4.53525279,12.6674302 C4.53525279,12.6674302 10.3216098,7.9757894 10.9471619,7.50662532 C11.572714,7.03746123 12.9802063,5.94274504 14.0749225,5.94274504 C15.1696387,5.94274504 17.359071,5.78635701 17.359071,5.78635701 L3.4405366,5.94274504 Z M40.3481111,5.94274504 C40.3481111,5.94274504 40.8172752,9.85244573 39.2533949,12.6674302 C39.2533949,12.6674302 33.4670379,7.9757894 32.8414858,7.50662532 C32.2159336,7.03746123 30.8084414,5.94274504 29.7137252,5.94274504 C28.619009,5.94274504 26.4295766,5.78635701 26.4295766,5.78635701 L40.3481111,5.94274504 Z M19.0793393,6.41190912 C19.0793393,6.41190912 19.0793393,15.3260267 11.416326,15.4824147 C6.09913307,15.6388027 5.78635699,14.2313105 5.78635701,14.2313105 C6.88107321,13.1365943 11.8854901,7.9757894 11.8854901,7.9757894 C11.8854901,7.9757894 12.8238185,6.88107321 14.5440865,6.72468518 C16.2643546,6.56829715 19.0793393,6.41190912 19.0793393,6.41190912 Z M24.7093083,6.41190912 C24.7093083,6.41190912 24.7093083,15.3260267 32.3723217,15.4824147 C37.6895146,15.6388027 38.0022907,14.2313105 38.0022907,14.2313105 C36.9075745,13.1365943 31.9031576,7.9757894 31.9031576,7.9757894 C31.9031576,7.9757894 30.9648291,6.88107321 29.2445611,6.72468518 C27.5242931,6.56829715 24.7093083,6.41190912 24.7093083,6.41190912 Z" id="Path-53" fill="#9B9B9B" sketch:type="MSShapeGroup"></path>
                <path d="M18.7008871,4.55136547 C18.7008871,4.55136547 17.8919647,2.12459839 12.2295082,1.96281391 C6.5670517,1.80102944 4.46385357,2.93352075 3.81671568,4.38958099 C3.16957779,5.84564124 3.33136237,11.6698823 4.94920698,13.4495114 C6.56705159,15.2291405 8.67024984,15.5527096 9.80274092,15.5527095 C10.935232,15.5527094 16.1123358,16.0380631 18.0537492,11.1845288 C19.9951627,6.33099456 18.7008871,4.55136547 18.7008871,4.55136547 Z" id="Path-60" fill="url(#linearGradient-1)" sketch:type="MSShapeGroup"></path>
                <path d="M39.9479514,4.48062091 C39.9479514,4.48062091 39.1390291,2.05385383 33.4765725,1.89206936 C27.814116,1.73028488 25.7109179,2.86277619 25.06378,4.31883644 C24.4166421,5.77489669 24.5784267,11.5991378 26.1962713,13.3787669 C27.8141159,15.158396 29.9173141,15.481965 31.0498052,15.4819649 C32.1822963,15.4819648 37.3594001,15.9673185 39.3008135,11.1137843 C41.242227,6.26025 39.9479514,4.48062091 39.9479514,4.48062091 Z" id="Path-60-Copy" fill="url(#linearGradient-1)" sketch:type="MSShapeGroup" transform="translate(32.539940, 8.686052) scale(-1, 1) translate(-32.539940, -8.686052) "></path>
            </g>
        </g>
    </g>
</svg>