<?xml version="1.0" encoding="UTF-8" standalone="no"?>
<svg width="225px" height="59px" viewBox="0 0 225 59" version="1.1" xmlns="http://www.w3.org/2000/svg" xmlns:xlink="http://www.w3.org/1999/xlink" xmlns:sketch="http://www.bohemiancoding.com/sketch/ns">
    <!-- Generator: Sketch 3.5.2 (25235) - http://www.bohemiancoding.com/sketch -->
    <title>Good Rx Logo</title>
    <desc>Created with Sketch.</desc>
    <defs></defs>
    <g id="Homepage" stroke="none" stroke-width="1" fill="none" fill-rule="evenodd" sketch:type="MSPage">
        <g id="Desktop-Retina---Simplified" sketch:type="MSArtboardGroup" transform="translate(-873.000000, -2985.000000)" fill="#FFFFFF">
            <g id="Logos" sketch:type="MSLayerGroup" transform="translate(0.000000, 2715.000000)">
                <g transform="translate(286.000000, 270.000000)" id="Good-Rx-Logo" sketch:type="MSShapeGroup">
                    <g transform="translate(587.000000, 0.000000)">
                        <path d="M35.3423552,16.5513574 C34.5654533,13.2079247 32.6685272,10.8712665 29.6515767,9.54257458 C27.9653207,8.81182879 26.0907851,8.44640623 24.0274724,8.44640623 C20.07818,8.44640623 16.8334432,9.93292811 14.2933613,12.9057732 C11.7526824,15.8787177 10.4828903,20.3484146 10.4828903,26.3154601 C10.4828903,32.3275998 11.8582663,36.5819567 14.6095157,39.0794247 C17.3602676,41.5767934 20.4884741,42.8255274 23.9941353,42.8255274 C27.4329235,42.8255274 30.2506479,41.8410022 32.4471097,39.8713557 C34.6434719,37.9017093 35.9964573,35.3213035 36.5071605,32.1298406 L25.1589407,32.1298406 L25.1589407,23.9585392 L45.5922446,23.9585392 L45.5922446,50.2329079 L38.8033348,50.2329079 L37.771778,44.1209449 C35.7968333,46.4357513 34.0221097,48.067588 32.4471097,49.0152631 C29.7400442,50.6682564 26.4121141,51.4951503 22.4634188,51.4951503 C15.9625011,51.4951503 10.6379323,49.24878 6.48941398,44.7563372 C2.16316453,40.2419433 3.98053958e-05,34.0679012 3.98053958e-05,26.2334163 C3.98053958e-05,18.3113254 2.18495798,11.959588 6.5559885,7.17949545 C10.9264219,2.39950219 16.7060659,0.00950555556 23.8943233,0.00950555556 C30.1284454,0.00950555556 35.1369593,1.58730859 38.9198651,4.74281532 C42.7021738,7.89842138 44.8710703,11.8346352 45.425858,16.5513574 L35.3423552,16.5513574 Z" id="Fill-1"></path>
                        <path d="M157.4059,40.4008062 C158.803667,38.407818 159.50245,35.8283062 159.50245,32.6613769 C159.50245,28.2326025 158.381928,25.0661699 156.141283,23.161483 C154.765409,22.0102877 153.168019,21.4341934 151.349111,21.4341934 C148.575571,21.4341934 146.540321,22.4804998 145.242466,24.5731126 C143.944611,26.6658247 143.295584,29.2623214 143.295584,32.3624039 C143.295584,35.7063332 143.955458,38.3803045 145.275703,40.3842187 C146.595451,42.3886295 148.597862,43.3903382 151.282536,43.3903382 C153.966714,43.3903382 156.008233,42.3936951 157.4059,40.4008062 M155.076389,14.6081715 C156.784538,15.5713416 158.171358,16.9057944 159.236252,18.6107355 L159.236252,1.33823721 L168.853932,1.33823721 L168.853932,50.2328483 L159.635599,50.2328483 L159.635599,45.217153 C158.282116,47.3653887 156.740354,48.9265049 155.009814,49.9007995 C153.279275,50.8748955 151.127096,51.3621918 148.553678,51.3621918 C144.315796,51.3621918 140.74983,49.6515891 137.854485,46.2302843 C134.959239,42.8089796 133.511617,38.4192406 133.511617,33.0599746 C133.511617,26.8816614 134.936849,22.0211143 137.78791,18.4778365 C140.638474,14.9351547 144.448945,13.1631682 149.219224,13.1631682 C151.415686,13.1631682 153.367742,13.6449022 155.076389,14.6081715" id="Fill-4"></path>
                        <path d="M201.158409,23.4981108 C199.68133,23.8615468 198.07976,24.0423212 196.3534,24.0423212 L181.904539,24.0423212 L181.904539,5.19877407 L196.626067,5.19877407 C198.170218,5.19877407 199.659039,5.33475219 201.090242,5.60690707 C202.521545,5.87896263 203.793029,6.35513434 204.906883,7.03542222 C206.019842,7.7157101 206.90581,8.64580438 207.564988,9.82461246 C208.22317,11.0044138 208.553256,12.5009677 208.553256,14.3143734 C208.553256,16.0383852 208.234813,17.5115973 207.599121,18.7361949 C206.962235,19.9606933 206.099652,20.9704475 205.009183,21.7633717 C203.918714,22.5573886 202.634393,23.135668 201.158409,23.4981108 M224.845804,29.6348061 L224.953079,29.5993465 L218.98227,29.5993465 L213.566746,38.058099 C211.886162,34.6221933 210.607314,31.961631 210.461626,31.5252892 C210.052626,30.3007909 209.439225,29.21237 208.621423,28.2599273 C207.803522,27.3076832 206.667277,26.5826983 205.213584,26.0830855 C208.030412,24.8139896 210.063274,23.2717455 211.313561,21.4572471 C212.562754,19.6438414 213.187799,17.1949441 213.187799,14.1102572 C213.187799,9.57589865 211.756596,6.29881616 208.89399,4.28040034 C206.031485,2.26287845 201.896401,1.25312424 196.489734,1.25312424 L177.269897,1.25312424 L177.269897,50.1649189 L181.904539,50.2328582 L181.904539,27.9878717 L196.489734,27.9878717 C197.624983,27.9878717 198.727195,28.0559104 199.795273,28.1919879 C200.862356,28.3280653 201.828234,28.6001209 202.691912,29.0083532 C203.554495,29.4164862 204.293581,30.0181074 204.906883,30.8110316 C205.206419,31.1987034 207.986826,36.607136 210.857392,42.2900081 L201.231452,57.3253734 C200.901963,57.8401832 200.467984,58.2802 199.95758,58.6173145 L199.378113,59.0000199 L205.050381,59.0000199 L212.976133,46.5019525 C215.189512,50.9210923 217.080965,54.7621512 217.428267,55.5986798 C217.990718,56.9531966 218.581231,58.1836545 219.081784,59.0000199 L224.193393,58.9319811 L224.193393,58.5238481 C223.87495,58.2974828 223.602383,57.9690098 223.375492,57.5374357 C223.147606,57.1068549 222.647551,56.4412673 222.298657,55.7346579 C221.237644,53.585429 218.320505,47.7187034 215.64618,42.2915973 L222.524055,31.4460266 C223.065209,30.5928111 223.885598,29.9528498 224.845804,29.6348061" id="Fill-6"></path>
                        <path d="M70.7236201,17.5326446 C70.7236201,17.5326446 62.8126957,5.31606886 52.3642769,12.6161766 C41.915858,19.9163837 48.3341796,30.7920503 51.1702145,33.9207389 C53.2222822,36.1845907 60.5737417,44.9453955 56.0958337,57.7579308 C56.0958337,57.7579308 86.0770588,53.2793938 94.1578527,34.9635689 C101.322525,18.7244645 92.9637904,12.7651665 89.6799447,11.4243567 C87.8787506,10.6888433 79.0823552,8.14677761 70.7236201,17.5326446" id="Fill-9"></path>
                        <path d="M128.289397,12.6162064 C117.840979,5.31609865 109.930054,17.5326744 109.930054,17.5326744 C102.94361,9.68756162 95.6523563,10.1757519 92.3945831,10.9769202 C94.0683005,12.0853057 96.2245588,14.0444236 97.5320666,17.2757165 C98.453661,19.5533747 98.8178804,22.1440111 98.6146738,24.9756138 C98.3829069,28.2057148 97.4042912,31.7950801 95.7060935,35.6440852 C94.6685659,37.9959404 93.2484089,40.2294976 91.460052,42.3284673 C102.927389,54.5262704 124.557841,57.7579606 124.557841,57.7579606 C120.079933,44.9454253 127.431392,36.1846205 129.48346,33.9206694 C132.319495,30.7920801 138.737816,19.9164135 128.289397,12.6162064" id="Fill-15"></path>
                    </g>
                </g>
            </g>
        </g>
    </g>
</svg>