<?xml version="1.0" encoding="UTF-8" standalone="no"?>
<svg width="165px" height="57px" viewBox="0 0 165 57" version="1.1" xmlns="http://www.w3.org/2000/svg" xmlns:xlink="http://www.w3.org/1999/xlink" xmlns:sketch="http://www.bohemiancoding.com/sketch/ns">
    <!-- Generator: Sketch 3.5.2 (25235) - http://www.bohemiancoding.com/sketch -->
    <title>JDRF Logo</title>
    <desc>Created with Sketch.</desc>
    <defs></defs>
    <g id="Homepage" stroke="none" stroke-width="1" fill="none" fill-rule="evenodd" sketch:type="MSPage">
        <g id="Desktop-Retina---Simplified" sketch:type="MSArtboardGroup" transform="translate(-625.000000, -2986.000000)" fill="#FFFFFF">
            <g id="Logos" sketch:type="MSLayerGroup" transform="translate(0.000000, 2715.000000)">
                <g transform="translate(286.000000, 270.000000)" id="JDRF-Logo" sketch:type="MSShapeGroup">
                    <g transform="translate(339.000000, 1.000000)">
                        <path d="M7.17357232,38.081525 C7.28848504,38.2156295 7.39528055,38.3344323 7.49571696,38.4584101 C8.3238217,39.4806125 9.2296197,40.4226204 10.3303803,41.1606419 C11.9997943,42.2799045 13.8291958,42.7168797 15.8300312,42.4477399 C16.938086,42.2987059 17.9542706,41.9310541 18.831303,41.2345074 C19.4214651,40.7658118 19.8921135,40.1993114 20.3029489,39.5551854 C20.91649,38.5932219 21.2752182,37.5500959 21.5227369,36.459687 C21.6609539,35.8507811 21.7381983,35.2277275 21.8324252,34.6094395 C21.934919,33.9370182 22.0277244,33.2631076 22.1201559,32.5892344 C22.2253803,31.8216517 22.3224127,31.0529522 22.4287968,30.2855557 C22.5258666,29.5854721 22.633111,28.8868033 22.7313778,28.1868686 C22.8277369,27.5005975 22.9174002,26.8134329 23.0118516,26.126864 C23.1100062,25.413154 23.2107793,24.6997791 23.3096072,23.9861436 C23.4122132,23.2455159 23.5134726,22.5047393 23.6160411,21.7641116 C23.7130736,21.0637673 23.8115274,20.3636465 23.9085224,19.6633023 C24.0073878,18.9495551 24.1039339,18.2354355 24.2039589,17.5218372 C24.3020761,16.8215675 24.4043828,16.1218934 24.5027618,15.4216981 C24.5591708,15.0202409 24.6113903,14.618188 24.6719514,14.1684427 C24.4843579,14.1595446 24.325904,14.1455831 24.1674127,14.1455087 C20.7180486,14.1438705 17.2686471,14.1437961 13.8193204,14.1433493 C13.7782481,14.1433493 13.7371758,14.1433865 13.6961035,14.1431632 C13.2373878,14.1410038 13.2265025,14.1396263 13.2822007,13.7025022 C13.3835349,12.9072572 13.5021135,12.1142089 13.608086,11.3195596 C13.70149,10.6193271 13.7829988,9.91745643 13.8780112,9.21744729 C13.9749688,8.50351391 14.0829988,7.79110699 14.1838092,7.07769484 C14.2066272,6.91630033 14.2170262,6.75323044 14.2375249,6.59150085 C14.2836845,6.22731143 14.3328741,6.18088491 14.7012905,6.17932123 C15.4130237,6.17626832 16.1248317,6.17749693 16.8366022,6.17772031 C31.7154052,6.18226244 46.5942456,6.18296982 61.4730486,6.19592606 C63.6370885,6.19778759 65.7898317,6.35828857 67.9099564,6.8372226 C71.149096,7.56898942 74.1042456,8.88832907 76.6559663,11.0297569 C78.8177993,12.8440397 80.4334227,15.061753 81.5172756,17.6649888 C82.2032357,19.3125531 82.6335599,21.0248242 82.828298,22.7920848 C82.9760536,24.1327948 83.0054551,25.4784192 82.8955923,26.8284741 C82.7859913,28.174992 82.5952556,29.5050541 82.2940586,30.8221971 C81.9714277,32.2330867 81.5202307,33.6023153 80.950717,34.9302553 C80.0382606,37.0578705 78.8537843,39.0265113 77.3993828,40.8347628 C75.3577743,43.3730312 72.9209289,45.4525818 70.1062406,47.0964976 C67.8156172,48.4343036 65.3776496,49.419201 62.8001933,50.0492912 C61.1780611,50.4458712 59.5328117,50.7256217 57.8606671,50.8063748 C56.9594701,50.8498973 56.0568516,50.8845218 55.1547943,50.8857504 C49.693298,50.8930848 44.2318017,50.8899202 38.7703055,50.8888033 C38.6105424,50.888766 38.4508167,50.8725707 38.2360287,50.8609548 C39.4483728,42.0781893 40.6543579,33.3412174 41.8691334,24.5408046 L38.2011284,24.5408046 C38.2809913,24.3324623 38.3239339,24.1967941 38.3834476,24.0687954 C38.940318,22.8716465 39.5001434,21.6758751 40.0588466,20.4795825 C40.5021509,19.5303147 40.9561908,18.5857752 41.3815025,17.6285773 C41.5121633,17.3345302 41.6794451,17.2410443 42.0014027,17.2423846 C45.1358791,17.2553408 48.2704676,17.2498307 51.4050187,17.2508732 C51.5517643,17.2509104 51.6985474,17.2628242 51.9072756,17.2719457 C51.7147818,18.9523101 51.4522631,20.5843121 51.2415898,22.2223826 C51.0300561,23.8676014 50.7896446,25.5092089 50.5572007,27.1517471 C50.3266272,28.7808078 50.0868516,30.4085283 49.8574377,32.0377752 C49.6260037,33.6813186 49.4019763,35.3258673 49.1754052,36.9700809 C48.949096,38.6124702 48.7236845,40.2549711 48.491914,41.9409202 C48.6593454,41.9590515 48.7763155,41.9826929 48.8933229,41.9827673 C51.754096,41.9851129 54.6154676,42.0209287 57.4754925,41.9748 C60.1749314,41.9312775 62.725717,41.2526387 65.0589464,39.8802455 C67.8833603,38.2189803 69.9196197,35.8565518 71.1992207,32.8518216 C71.8166147,31.4021005 72.1974127,29.8866674 72.3960411,28.3266694 C72.6197693,26.5697961 72.5823628,24.8182468 72.1727618,23.091009 C71.4382855,19.9936863 69.8011534,17.5254486 66.9966771,15.9033127 C65.912899,15.2764617 64.7421135,14.8812964 63.511515,14.629171 C62.4838092,14.4185949 61.4483229,14.3714982 60.4104426,14.370977 C52.047101,14.3666955 43.6837594,14.3751096 35.3204177,14.379689 C35.2520012,14.3797262 35.1834352,14.3825929 35.1151309,14.3798379 C34.9127993,14.3716844 34.8155424,14.476414 34.7904052,14.6677046 C34.7071758,15.3009966 34.6245823,15.934363 34.5370137,16.5670593 C34.432687,17.3208294 34.3224875,18.0738549 34.2165898,18.8274016 C34.1220636,19.5000835 34.0287718,20.1729515 33.9370137,20.8460057 C33.8378865,21.5733421 33.7421633,22.3011253 33.6431858,23.0284244 C33.5441708,23.7557236 33.4441085,24.4828366 33.3423628,25.2097634 C33.2443204,25.9099587 33.1417145,26.6095583 33.0444202,27.3098653 C32.9434227,28.0369783 32.8470262,28.764687 32.7475249,29.4920234 C32.6553928,30.1657477 32.5628491,30.8394349 32.4685474,31.5128614 C32.3685973,32.2265342 32.2608292,32.9391272 32.1661908,33.6534702 C31.8462157,36.0694734 31.4898067,38.4754989 30.5988965,40.7685296 C29.5751559,43.4034858 28.0876496,45.7202324 25.933298,47.5839946 C24.4191958,48.8938777 22.7016397,49.8577027 20.8150436,50.5319855 C19.1957918,51.1106602 17.5242456,51.4470384 15.8154426,51.5927216 C13.6787843,51.7748536 11.5487469,51.7039666 9.44728803,51.2526576 C5.73132793,50.4546204 2.70390898,48.5579835 0.386203242,45.5513173 C0.294594763,45.4324773 0.214769327,45.301798 0.108684539,45.1975152 C-0.0438591022,45.0475505 -0.031776808,44.9316145 0.119532419,44.7880162 C0.713584788,44.2241965 1.29974439,43.6521488 1.89054239,43.0849411 C2.6388591,42.3665028 3.38919576,41.6501494 4.13803616,40.9322696 C5.0642207,40.0444323 5.98917082,39.1553663 6.916702,38.2689437 C6.98332294,38.2052794 7.06647756,38.1588157 7.17357232,38.081525" id="Fill-1"></path>
                        <path d="M97.9628603,15.2629693 C97.1239451,21.2682972 96.280803,27.222098 95.4632469,33.1793984 C94.6477481,39.121546 93.8119002,45.0607152 92.9953167,51.0124311 L83.1186209,51.0124311 C83.1186209,50.8907244 83.1064638,50.7874095 83.1204165,50.6877061 C83.3335586,49.1640823 83.5521247,47.6412031 83.765192,46.1175794 C83.9367756,44.8907577 84.1009152,43.6629308 84.2717132,42.4360346 C84.4199925,41.3711287 84.5754539,40.3071907 84.7232095,39.2422103 C84.8559277,38.2853847 84.9799676,37.327405 85.1123491,36.3705049 C85.2970249,35.035789 85.4870125,33.7018178 85.6725486,32.3672136 C85.8449925,31.1267655 86.013808,29.8857962 86.1857656,28.6452737 C86.36902,27.3237374 86.5552668,26.0026107 86.7380349,24.681 C86.9132843,23.4134853 87.0841197,22.1453377 87.2599676,20.8778975 C87.3983716,19.8803416 87.5444065,18.8838282 87.6817257,17.8861234 C87.8598554,16.5918772 88.0302045,15.2965513 88.208596,14.0023795 C88.342399,13.0315924 88.4860773,12.0622201 88.6208903,11.091582 C88.7613142,10.0806231 88.8938828,9.06854735 89.034793,8.05762573 C89.1098304,7.51956956 89.1953042,6.98296538 89.2818254,6.40726911 C89.4722618,6.39907838 89.6453042,6.38515415 89.8183466,6.38511692 C95.1158155,6.38396277 100.413284,6.38284585 105.710716,6.3848563 C107.585903,6.38560091 109.463147,6.34096146 111.335753,6.41251862 C113.983197,6.51374853 116.551152,7.02280209 118.921863,8.26656368 C121.897175,9.82752972 123.821289,12.2126688 124.564706,15.5029948 C124.931514,17.1264709 124.97008,18.7639086 124.803995,20.4158289 C124.606414,22.381305 124.150541,24.2783514 123.352362,26.0879059 C122.257212,28.5707008 120.612935,30.6254931 118.45589,32.2805408 C116.969506,33.4209876 115.327698,34.2746473 113.58508,34.9489301 C113.473683,34.9920431 113.364756,35.0413736 113.195641,35.1127074 C114.644618,37.7895852 116.10392,40.4160157 117.54609,43.0515676 C118.98392,45.6792266 120.429045,48.3029765 121.857037,50.9030105 C121.826888,50.960904 121.822287,50.9744187 121.813796,50.9846943 C121.805791,50.9942998 121.794494,51.0053201 121.783122,51.007405 C121.729818,51.0171221 121.67599,51.0307858 121.622349,51.0307858 C117.872536,51.0318654 114.122723,51.0317538 110.327312,51.0317538 C106.464905,43.4098374 102.601564,35.7860967 98.7016384,28.0901659 C98.9568254,28.0726303 99.126389,28.0510738 99.29599,28.0508877 C101.595666,28.0486538 103.895416,28.0585572 106.195017,28.0457498 C107.47387,28.0386016 108.733384,27.8736329 109.936227,27.4138726 C112.013035,26.619968 113.522237,25.2458622 114.25417,23.1188426 C114.690965,21.8495781 114.829032,20.5441999 114.552112,19.2168929 C114.508534,19.0080294 114.40084,18.8126061 114.324269,18.6104442 C114.258097,18.4356839 114.211002,18.2515042 114.126277,18.0863122 C113.625628,17.1099406 112.825242,16.4540124 111.838646,16.0065382 C110.87988,15.5717224 109.862012,15.380469 108.818446,15.3075343 C108.464095,15.2827387 108.108397,15.2653148 107.753297,15.2649425 C104.673397,15.261629 101.593459,15.2630065 98.5135586,15.2629693 L97.9628603,15.2629693 Z" id="Fill-3"></path>
                        <path d="M130.838813,6.40714624 L164.985658,6.40714624 C164.955995,6.69776806 164.937554,6.96463677 164.900409,7.22886212 C164.640883,9.07516323 164.375858,10.9206453 164.116182,12.7669091 C164.017653,13.4675884 163.924998,14.1691613 163.836232,14.8711809 C163.779374,15.3209634 163.769536,15.3381639 163.305397,15.3382383 C157.393077,15.338983 151.480721,15.3387596 145.568364,15.3387596 C143.720746,15.3387596 141.873165,15.3386106 140.025546,15.3386106 C139.943401,15.3386106 139.861182,15.3360045 139.779224,15.3395414 C139.489399,15.3520137 139.459661,15.3688046 139.415596,15.6655323 C139.317703,16.3248856 139.230995,16.9859144 139.139798,17.646273 C138.959237,18.9538477 138.777815,20.2613108 138.598564,21.5690718 C138.463601,22.5534852 138.330733,23.5381593 138.199362,24.5230195 C138.189187,24.5993422 138.198015,24.6781593 138.198015,24.8045943 L159.553302,24.8045943 C159.51511,25.1478602 159.490234,25.440269 159.449012,25.7304069 C159.22506,27.3072703 158.994224,28.8831658 158.771544,30.4602155 C158.638377,31.4031913 158.510633,32.3470607 158.390783,33.2917863 C158.332616,33.7504669 158.329324,33.7678909 157.871132,33.7680398 C154.586506,33.7689705 151.30188,33.7684493 148.017254,33.7685238 C144.486269,33.768561 140.955284,33.7687099 137.424299,33.7688589 L136.90592,33.7688589 C136.10385,39.5409372 135.308589,45.2643553 134.510559,51.0074683 L124.697566,51.0074683 C124.671269,50.983045 124.659411,50.9752266 124.652117,50.9643553 C124.644748,50.9532605 124.637005,50.9388895 124.637791,50.926529 C124.649162,50.7505773 124.651594,50.5732854 124.675833,50.3990091 C126.706781,35.787128 128.739374,21.1754702 130.773239,6.56399863 C130.778626,6.52527884 130.803763,6.48931411 130.838813,6.40714624" id="Fill-5"></path>
                        <path d="M129.729539,2.49824931 C129.523541,2.49824931 129.159501,2.5016373 129.159501,2.5016373 L14.3829052,2.641587 C14.3829052,2.641587 14.6174439,1.03806643 14.7347506,0.317915545 C14.9119077,0.116721555 15.1678803,0.116944938 15.4298753,0.116125865 C24.2723566,0.0890592423 33.1148379,0.0396542782 41.9573192,0.0352983018 C65.9664464,0.0234589811 89.975611,0.0255811234 113.984776,0.0341813847 C119.172494,0.0360056826 124.360212,0.0882029393 129.54793,0.117354474 C129.630075,0.117801241 129.712855,0.113519726 129.794177,0.12230614 C130.055835,0.150638602 130.159264,0.296768583 130.089576,0.538283279 C130.030436,0.743163096 129.966209,0.946590921 129.905274,1.15098674 C129.897569,1.17678752 129.884738,1.20951319 129.893903,1.2305857 C130.080037,1.65966799 129.800274,2.0262774 129.729539,2.49824931" id="Fill-8"></path>
                        <path d="M154.917655,54.6006649 C155.023178,55.373013 154.564575,56.0218673 154.5743,56.7276845 C154.256308,56.9103749 153.607792,56.936883 153.607792,56.936883 L57.1453354,56.9999888 C57.1453354,56.9999888 45.8661584,56.9560195 40.2265698,56.9352449 C39.9748242,56.9343513 39.7348242,56.9247459 39.5488392,56.7375506 C39.4257718,56.2925708 39.5989638,55.8795349 39.6663329,55.4565212 C39.695697,55.2722671 39.7318317,55.0889438 39.7559214,54.9040568 C39.7851733,54.6795564 39.8639888,54.5837994 40.0873803,54.5699496 C40.7926421,54.5261665 42.2040636,54.4567315 42.2040636,54.4567315 L139.734138,54.426612 C139.734138,54.426612 149.069675,54.4406106 153.737368,54.459077 C154.113378,54.4605662 154.489051,54.5470901 154.917655,54.6006649" id="Fill-10"></path>
                    </g>
                </g>
            </g>
        </g>
    </g>
</svg>