<?xml version="1.0" encoding="UTF-8" standalone="no"?>
<svg width="10px" height="24px" viewBox="0 0 10 24" version="1.1" xmlns="http://www.w3.org/2000/svg" xmlns:xlink="http://www.w3.org/1999/xlink" xmlns:sketch="http://www.bohemiancoding.com/sketch/ns">
    <!-- Generator: Sketch 3.5.2 (25235) - http://www.bohemiancoding.com/sketch -->
    <title>Phone</title>
    <desc>Created with Sketch.</desc>
    <defs></defs>
    <g id="Homepage" stroke="none" stroke-width="1" fill="none" fill-rule="evenodd" sketch:type="MSPage">
        <g id="Desktop-Retina---Simplified" sketch:type="MSArtboardGroup" transform="translate(-1125.000000, -4218.000000)" fill="#44A7F0">
            <g id="Contact-Form" sketch:type="MSLayerGroup" transform="translate(562.000000, 4104.000000)">
                <g id="Phone" transform="translate(563.000000, 114.000000)" sketch:type="MSShapeGroup">
                    <g id="Fill-1">
                        <path d="M6.52897136,17.28 L4.27729102,17.28 C4.27729102,17.28 2.98286028,16.51372 2.98286028,11.99888 C2.98286028,7.48412 4.30989098,6.72 4.30989098,6.72 L6.48959944,6.72 L7.27703792,0 L5.25276981,0 L5.21339789,0 L5.21331915,0.00052 C0.826814343,0.00052 3.93719271e-06,8.08004 3.93719271e-06,12.24 C3.93719271e-06,16.4 1.06304589,23.99948 5.21331915,23.99948 L5.21339789,24 L5.25276981,24 L7.31640984,24 L6.52897136,17.28 Z M8.18379302,6.72 L7.10323056,6.72 L7.89066904,0 L8.70763647,0 C9.37093527,0 9.88536883,0.58852 9.80693996,1.25768 L9.28309651,5.72824 C9.21683356,6.29396 8.7446067,6.72 8.18379302,6.72 Z M8.74701233,24 L7.89067298,24 L7.1032345,17.28 L8.22316888,17.28 C8.78398256,17.28 9.25617005,17.70604 9.32247237,18.27176 L9.84631582,22.74232 C9.92474469,23.41148 9.41031113,24 8.74701233,24 Z"></path>
                    </g>
                </g>
            </g>
        </g>
    </g>
</svg>