<?xml version="1.0" encoding="UTF-8" standalone="no"?>
<svg width="44px" height="39px" viewBox="0 0 44 39" version="1.1" xmlns="http://www.w3.org/2000/svg" xmlns:xlink="http://www.w3.org/1999/xlink" xmlns:sketch="http://www.bohemiancoding.com/sketch/ns">
    <!-- Generator: Sketch 3.5.2 (25235) - http://www.bohemiancoding.com/sketch -->
    <title>Relax Icon</title>
    <desc>Created with Sketch.</desc>
    <defs></defs>
    <g id="Homepage" stroke="none" stroke-width="1" fill="none" fill-rule="evenodd" sketch:type="MSPage">
        <g id="Mobile-Alerts" sketch:type="MSArtboardGroup" transform="translate(-17.000000, -588.000000)" fill="#9B9B9B">
            <g id="Relax-Icon" sketch:type="MSLayerGroup" transform="translate(17.000000, 588.000000)">
                <circle id="Oval-15" sketch:type="MSShapeGroup" cx="21.5578636" cy="4.26143815" r="4.26143815"></circle>
                <path d="M21.6832,9.77624046 L16.2937341,9.65090405 C16.2937341,9.65090405 14.6643607,9.77624046 13.9123422,10.4029225 C13.1603237,11.0296046 9.2748948,17.5470983 9.2748948,17.5470983 L2.75740116,11.5309503 L2.75740116,12.658978 L0,12.7843145 C0,12.7843145 0.125336416,14.0376786 1.12802775,14.0376786 L3.50941965,14.0376786 C3.50941965,14.0376786 6.39215723,18.9257988 9.77624046,21.4325272 C10.1522497,21.8085364 15.2910428,15.7923884 15.2910428,15.7923884 C15.2910428,15.7923884 16.7950798,21.6832 16.7950798,22.9365642 C16.7950798,24.1899283 17.5470983,25.9446382 22.0592092,25.9446382 C26.5713202,25.9446382 26.6966566,24.4406012 26.9473295,22.9365642 C27.1980023,21.4325272 28.4513665,15.667052 28.4513665,15.667052 C28.4513665,15.667052 33.2141503,21.5578636 33.4648231,21.5578636 C36.0968879,19.4271445 39.8569803,14.0376786 39.8569803,14.0376786 C39.8569803,14.0376786 42.9903908,14.7896971 43.3664,12.9096509 L40.6089988,12.658978 L40.4836624,11.4056139 L34.0915052,17.5470983 L30.4567491,11.7816231 C30.4567491,11.7816231 29.9554035,10.9042682 29.203385,10.2775861 C28.4513665,9.65090405 21.6832,9.77624046 21.6832,9.77624046 Z" id="Path-65" sketch:type="MSShapeGroup"></path>
                <path d="M17.2964254,26.4459838 C17.2964254,26.4459838 17.171089,27.5740116 21.6832,27.5740116 C26.195311,27.5740116 25.9446382,26.4459838 25.9446382,26.4459838 L27.3233387,27.699348 C27.3233387,27.699348 29.7047307,25.5686289 30.5820855,26.3206474 C31.4594404,27.0726659 29.3287214,29.3287214 29.3287214,29.3287214 C29.3287214,29.3287214 37.9769332,34.5928507 36.2222243,37.0995792 C34.4675153,39.6063077 28.576703,36.8489064 21.5578636,32.838141 C14.4136878,37.0995793 9.40023129,39.4809709 7.14417572,37.350252 C4.88812015,35.2195331 13.9123422,29.3287214 13.9123422,29.3287214 C13.9123422,29.3287214 11.7816231,27.4486752 12.658978,26.3206474 C13.536333,25.1926196 15.7923884,27.5740116 15.7923884,27.5740116 L17.2964254,26.4459838 Z" id="Path-66" sketch:type="MSShapeGroup"></path>
            </g>
        </g>
    </g>
</svg>