<?xml version="1.0" encoding="UTF-8" standalone="no"?>
<svg width="29px" height="25px" viewBox="0 0 29 25" version="1.1" xmlns="http://www.w3.org/2000/svg" xmlns:xlink="http://www.w3.org/1999/xlink" xmlns:sketch="http://www.bohemiancoding.com/sketch/ns">
    <!-- Generator: Sketch 3.5.2 (25235) - http://www.bohemiancoding.com/sketch -->
    <title>Second Icon</title>
    <desc>Created with Sketch.</desc>
    <defs>
        <path id="path-1" d="M0,0 L28.55,0 L28.55,25 L0,25 L0,0 Z"></path>
        <path id="path-3" d="M0,0 L28.55,0 L28.55,25 L0,25"></path>
    </defs>
    <g id="Homepage" stroke="none" stroke-width="1" fill="none" fill-rule="evenodd" sketch:type="MSPage">
        <g id="Mobile-Dashboard" sketch:type="MSArtboardGroup" transform="translate(-128.000000, -630.000000)">
            <g id="Second-Icon" sketch:type="MSLayerGroup" transform="translate(128.000000, 630.000000)">
                <g id="Group-3">
                    <mask id="mask-2" sketch:name="Clip 2" fill="white">
                        <use xlink:href="#path-1"></use>
                    </mask>
                    <g id="Clip-2"></g>
                    <path d="M21.6923,3.38775 C21.6933,3.37475 21.6948,3.36225 21.6958,3.34925 C21.6553,3.33225 21.6158,3.31275 21.5743,3.29925 C19.2013,2.50875 16.8283,1.71725 14.4528,0.93525 C14.3353,0.89625 14.1808,0.91175 14.0598,0.95175 C11.7973,1.69725 9.5373,2.45025 7.2768,3.20225 C7.1338,3.24975 6.9918,3.30075 6.8498,3.35025 C6.8528,3.36275 6.8558,3.37525 6.8593,3.38775 L21.6923,3.38775 Z M14.2533,4.28175 C10.8558,4.28175 7.4583,4.28225 4.0608,4.27925 C3.9363,4.27925 3.7723,4.28325 3.6968,4.21125 C3.5903,4.10975 3.4998,3.94175 3.4923,3.79775 C3.4813,3.58475 3.6513,3.46525 3.8503,3.39925 C4.6253,3.14325 5.3993,2.88425 6.1733,2.62625 C8.7573,1.76625 11.3403,0.90225 13.9283,0.05475 C14.1298,-0.01125 14.3898,-0.02125 14.5893,0.04475 C17.9423,1.14775 21.2913,2.26475 24.6373,3.39025 C24.7928,3.44225 24.9588,3.57525 25.0383,3.71625 C25.1643,3.93925 24.9768,4.23325 24.7203,4.27425 C24.6308,4.28825 24.5373,4.28175 24.4453,4.28175 L14.2533,4.28175 L14.2533,4.28175 Z" id="Fill-1" fill="#FFFFFF" sketch:type="MSShapeGroup" mask="url(#mask-2)"></path>
                </g>
                <g id="Group-6">
                    <mask id="mask-4" sketch:name="Clip 5" fill="white">
                        <use xlink:href="#path-3"></use>
                    </mask>
                    <g id="Clip-5"></g>
                    <path d="M14.2782,24.9985 L0.6992,24.9985 C0.6072,24.9985 0.5152,25.0025 0.4237,24.9965 C0.1787,24.9805 0.0077,24.809 0.0002,24.577 C-0.0073,24.3455 0.1527,24.157 0.3927,24.1225 C0.4647,24.112 0.5392,24.117 0.6127,24.117 C9.7202,24.117 18.8282,24.117 27.9362,24.1185 C28.0447,24.1185 28.1602,24.119 28.2607,24.1535 C28.4812,24.228 28.5767,24.4015 28.5437,24.628 C28.5132,24.842 28.3807,24.9725 28.1602,24.9945 C28.0692,25.004 27.9767,24.9985 27.8847,24.9985 L14.2782,24.9985" id="Fill-4" fill="#FFFFFF" sketch:type="MSShapeGroup" mask="url(#mask-4)"></path>
                </g>
                <path d="M13.7346,16.47565 C12.9041,16.21915 12.3126,15.72065 12.0666,14.88915 C11.9821,14.60515 11.9681,14.29465 11.9611,13.99515 C11.9536,13.68965 12.1406,13.51565 12.4111,13.52065 C12.6801,13.52515 12.8526,13.70615 12.8406,14.01265 C12.8176,14.60865 13.0056,15.09465 13.5271,15.41765 C14.0636,15.74965 14.6721,15.72115 15.1461,15.34915 C15.6296,14.96915 15.8141,14.31865 15.6096,13.71265 C15.3976,13.08265 14.9376,12.70715 14.3141,12.70715 C13.4981,12.70765 12.8551,12.39215 12.3916,11.72365 C11.4791,10.40915 12.0541,8.61965 13.5636,8.09315 C13.7141,8.04065 13.7386,7.97065 13.7361,7.83865 C13.7311,7.52665 13.7331,7.21465 13.7351,6.90265 C13.7371,6.51065 13.8966,6.30415 14.1906,6.30865 C14.4821,6.31315 14.6326,6.51665 14.6346,6.91265 C14.6361,7.21565 14.6421,7.51915 14.6321,7.82165 C14.6266,7.98265 14.6761,8.05615 14.8396,8.11115 C15.6476,8.38265 16.1606,8.94315 16.3856,9.76415 C16.4646,10.05315 16.3491,10.28065 16.0961,10.35915 C15.8531,10.43415 15.6256,10.30415 15.5361,10.01315 C15.3511,9.41165 14.9946,8.98715 14.3456,8.90515 C13.5371,8.80265 12.8466,9.48965 12.8486,10.36265 C12.8506,11.19565 13.4591,11.80915 14.2886,11.81565 C15.4896,11.82465 16.3871,12.65715 16.5656,13.92765 C16.7206,15.03115 15.9981,16.15015 14.9161,16.43915 C14.6771,16.50265 14.6161,16.60765 14.6311,16.83165 C14.6481,17.08765 14.6386,17.34565 14.6336,17.60265 C14.6271,17.96865 14.4591,18.16915 14.1736,18.16215 C13.8991,18.15515 13.7386,17.95515 13.7356,17.60565 C13.7316,17.23015 13.7346,16.85515 13.7346,16.47565" id="Fill-7" fill="#FFFFFF" sketch:type="MSShapeGroup"></path>
                <path d="M14.28045,21.5181 C10.90295,21.5181 7.52595,21.5181 4.14845,21.5176 C4.04795,21.5176 3.94395,21.5271 3.84695,21.5071 C3.61095,21.4591 3.47495,21.3086 3.47995,21.0636 C3.48495,20.8186 3.62495,20.6746 3.86495,20.6371 C3.96395,20.6221 4.06645,20.6276 4.16695,20.6276 L24.37595,20.6276 C24.47695,20.6276 24.57895,20.6231 24.67845,20.6361 C24.91995,20.6681 25.06095,20.8101 25.07245,21.0541 C25.08395,21.3006 24.94645,21.4506 24.71395,21.5046 C24.61745,21.5271 24.51295,21.5176 24.41245,21.5176 C21.03495,21.5181 17.65795,21.5181 14.28045,21.5181" id="Fill-9" fill="#FFFFFF" sketch:type="MSShapeGroup"></path>
                <path d="M4.5521,12.45495 C4.5521,14.10695 4.5526,15.75895 4.5521,17.41045 C4.5516,17.86295 4.4146,18.06845 4.1131,18.07295 C3.8006,18.07795 3.6516,17.86145 3.6516,17.39945 L3.6516,7.46045 C3.6516,7.39645 3.6481,7.33195 3.6536,7.26795 C3.6786,6.97145 3.8616,6.79045 4.1236,6.80045 C4.3751,6.80995 4.5451,6.98545 4.5486,7.27895 C4.5566,8.04995 4.5521,8.82095 4.5521,9.59145 L4.5521,12.45495" id="Fill-11" fill="#FFFFFF" sketch:type="MSShapeGroup"></path>
                <path d="M24.00085,12.42955 C24.00085,10.76855 24.00035,9.10755 24.00185,7.44655 C24.00185,7.33705 23.97785,7.19955 24.03235,7.12455 C24.12635,6.99655 24.25885,6.86155 24.40285,6.81405 C24.59285,6.75155 24.76735,6.86505 24.84235,7.05605 C24.88735,7.17155 24.89885,7.30605 24.89885,7.43205 C24.90185,10.76305 24.90135,14.09405 24.89985,17.42505 C24.89985,17.53405 24.89635,17.64755 24.86735,17.75155 C24.80585,17.97605 24.64135,18.08405 24.41385,18.06955 C24.19735,18.05505 24.05635,17.93205 24.01985,17.71355 C24.00135,17.60605 24.00185,17.49455 24.00135,17.38505 C24.00035,15.73305 24.00085,14.08155 24.00085,12.42955" id="Fill-13" fill="#FFFFFF" sketch:type="MSShapeGroup"></path>
                <path d="M9.63925,12.4327 C9.63925,14.1027 9.64025,15.7732 9.63775,17.4432 C9.63725,17.5607 9.63075,17.6842 9.59425,17.7937 C9.52375,18.0052 9.35125,18.0902 9.13925,18.0682 C8.93825,18.0472 8.80075,17.9287 8.76275,17.7237 C8.74275,17.6162 8.73975,17.5047 8.73975,17.3952 C8.73875,14.0912 8.73875,10.7877 8.73975,7.4837 C8.73975,7.3832 8.74175,7.2812 8.75725,7.1822 C8.79475,6.9397 8.94425,6.8067 9.18775,6.8027 C9.43525,6.7982 9.57725,6.9447 9.62925,7.1752 C9.64875,7.2632 9.63875,7.3582 9.63875,7.4497 C9.63925,9.1107 9.63925,10.7717 9.63925,12.4327" id="Fill-15" fill="#FFFFFF" sketch:type="MSShapeGroup"></path>
                <path d="M18.91375,12.4182 C18.91375,10.7387 18.91125,9.0597 18.91825,7.3802 C18.91875,7.2412 18.94125,7.0597 19.02875,6.9747 C19.12975,6.8752 19.32375,6.8032 19.45875,6.8262 C19.58075,6.8477 19.70475,6.9977 19.77725,7.1207 C19.83125,7.2127 19.81275,7.3527 19.81275,7.4712 C19.81425,10.7842 19.81425,14.0967 19.81425,17.4097 C19.81425,17.4462 19.81475,17.4832 19.81325,17.5197 C19.79875,17.8842 19.62775,18.0852 19.34375,18.0722 C19.06725,18.0597 18.91475,17.8652 18.91425,17.5112 C18.91325,15.8137 18.91375,14.1157 18.91375,12.4182" id="Fill-17" fill="#FFFFFF" sketch:type="MSShapeGroup"></path>
            </g>
        </g>
    </g>
</svg>