<?xml version="1.0" encoding="UTF-8" standalone="no"?>
<svg width="44px" height="44px" viewBox="0 0 44 44" version="1.1" xmlns="http://www.w3.org/2000/svg" xmlns:xlink="http://www.w3.org/1999/xlink" xmlns:sketch="http://www.bohemiancoding.com/sketch/ns">
    <!-- Generator: Sketch 3.5.2 (25235) - http://www.bohemiancoding.com/sketch -->
    <title>Shocked Face</title>
    <desc>Created with Sketch.</desc>
    <defs></defs>
    <g id="Homepage" stroke="none" stroke-width="1" fill="none" fill-rule="evenodd" sketch:type="MSPage">
        <g id="Mobile-Alerts" sketch:type="MSArtboardGroup" transform="translate(-17.000000, -299.000000)">
            <g id="Shocked-Face" sketch:type="MSLayerGroup" transform="translate(17.000000, 299.000000)">
                <path d="M21.6832,43.3664 C33.6585007,43.3664 43.3664,33.6585007 43.3664,21.6832 C43.3664,9.70789931 33.6585007,0 21.6832,0 C9.70789931,0 0,9.70789931 0,21.6832 C0,33.6585007 9.70789931,43.3664 21.6832,43.3664 Z M21.6832,41.9629566 C32.8834003,41.9629566 41.9629566,32.8834003 41.9629566,21.6832 C41.9629566,10.4829997 32.8834003,1.40344337 21.6832,1.40344337 C10.4829997,1.40344337 1.40344337,10.4829997 1.40344337,21.6832 C1.40344337,32.8834003 10.4829997,41.9629566 21.6832,41.9629566 Z" id="Oval-10" fill="#9B9B9B" sketch:type="MSShapeGroup"></path>
                <ellipse id="Oval-11" fill="#9B9B9B" sketch:type="MSShapeGroup" cx="16.4202874" cy="20.9113061" rx="2.38585372" ry="2.38585372"></ellipse>
                <ellipse id="Oval-11-Copy" fill="#9B9B9B" sketch:type="MSShapeGroup" cx="33.9633294" cy="20.9113061" rx="2.38585372" ry="2.38585372"></ellipse>
                <path d="M33.5380446,36.0028878 C34.2440181,35.2264285 34.0033389,34.805562 33.9196984,34.4337729 C33.1964767,31.2189907 29.4758321,28.770589 24.9946794,28.770589 C19.9952821,28.770589 14.5390264,31.7178201 15.9424697,35.5772893 C17.3144149,39.3501387 25.9637023,41.9629566 33.5380446,36.0028878 Z" id="Oval-11-Copy-2" fill="#9B9B9B" sketch:type="MSShapeGroup"></path>
                <path d="M12.7395947,19.7500293 C12.7424011,19.7297495 12.7523104,19.6748647 12.7716092,19.5904936 C12.8059741,19.4402564 12.8542854,19.2703496 12.9187111,19.0858602 C13.1045319,18.5537432 13.3806523,18.0205615 13.7631196,17.5244091 C14.7070524,16.2999004 16.1379433,15.4906421 18.203011,15.2881133 C18.5887107,15.2502863 18.8707173,14.9069501 18.8328903,14.5212504 C18.7950633,14.1355507 18.4517271,13.8535441 18.0660274,13.8913711 C15.6109994,14.1321447 13.8292988,15.1398078 12.651596,16.6675728 C12.1714182,17.2904793 11.8266132,17.9562893 11.5937335,18.6231641 C11.511614,18.8583218 11.4491258,19.0780872 11.4034998,19.2775559 C11.3748042,19.4030084 11.357654,19.4979976 11.3493991,19.5576505 C11.2962752,19.9415424 11.5644156,20.2958138 11.9483075,20.3489377 C12.3321994,20.4020616 12.6864707,20.1339212 12.7395947,19.7500293 L12.7395947,19.7500293 Z" id="Shape" fill="#979797" sketch:type="MSShapeGroup"></path>
                <path d="M38.753529,19.3056619 C38.7452741,19.2460089 38.728124,19.1510197 38.6994283,19.0255672 C38.6538024,18.8260985 38.5913142,18.6063331 38.5091946,18.3711754 C38.276315,17.7043006 37.93151,17.0384906 37.4513322,16.4155841 C36.2736293,14.8878192 34.4919288,13.880156 32.0369008,13.6393824 C31.6512011,13.6015554 31.3078649,13.883562 31.2700379,14.2692617 C31.2322109,14.6549614 31.5142175,14.9982976 31.8999172,15.0361246 C33.9649848,15.2386534 35.3958758,16.0479117 36.3398086,17.2724205 C36.7222759,17.7685729 36.9983962,18.3017546 37.1842171,18.8338715 C37.2486427,19.0183609 37.2969541,19.1882678 37.331319,19.338505 C37.3506178,19.422876 37.3605271,19.4777608 37.3633335,19.4980406 C37.4164574,19.8819325 37.7707287,20.1500729 38.1546206,20.096949 C38.5385125,20.0438251 38.806653,19.6895538 38.753529,19.3056619 L38.753529,19.3056619 Z" id="Shape" fill="#979797" sketch:type="MSShapeGroup"></path>
                <path d="M22.1744052,38.1736595 C22.1744052,38.1736595 25.4023249,39.5771029 29.612655,37.3315935 C29.612655,37.3315935 29.191622,36.3491832 25.6830136,36.3491832 C22.1744052,36.3491832 22.1744052,38.1736595 22.1744052,38.1736595 Z" id="Path-64" fill="#D8D8D8" sketch:type="MSShapeGroup"></path>
            </g>
        </g>
    </g>
</svg>