<?xml version="1.0" encoding="UTF-8" standalone="no"?>
<svg width="36px" height="44px" viewBox="0 0 36 44" version="1.1" xmlns="http://www.w3.org/2000/svg" xmlns:xlink="http://www.w3.org/1999/xlink" xmlns:sketch="http://www.bohemiancoding.com/sketch/ns">
    <!-- Generator: Sketch 3.5.2 (25235) - http://www.bohemiancoding.com/sketch -->
    <title>stethoscope icon@3x</title>
    <desc>Created with Sketch.</desc>
    <defs></defs>
    <g id="Homepage" stroke="none" stroke-width="1" fill="none" fill-rule="evenodd" sketch:type="MSPage">
        <g id="Mobile-Alerts" sketch:type="MSArtboardGroup" transform="translate(-21.000000, -211.000000)" fill="#9B9B9B">
            <g id="stethoscope-icon" sketch:type="MSLayerGroup" transform="translate(21.000000, 211.000000)">
                <ellipse id="Oval-16" sketch:type="MSShapeGroup" cx="7.82620807" cy="2.3018259" rx="2.3018259" ry="2.3018259"></ellipse>
                <ellipse id="Oval-16-Copy" sketch:type="MSShapeGroup" cx="15.5603431" cy="2.3018259" rx="2.3018259" ry="2.3018259"></ellipse>
                <path d="M7.60322072,1.1062763 C7.58338814,1.10523248 7.55246642,1.10397436 7.51112839,1.10281752 C7.15961258,1.09298032 6.71094427,1.10500532 6.19818889,1.15542853 C5.4308692,1.23088502 4.67082883,1.37961792 3.94965202,1.62187081 C2.1178566,2.23719528 0.77122219,3.3720189 0.228933242,5.13445798 C-0.424695219,7.25875048 0.508526649,10.7696073 2.53941575,14.3144318 C4.70761583,18.0989263 7.82048277,21.4117022 11.2915388,23.3500847 L12.2791584,21.5815569 C9.15410858,19.8363988 6.2932294,16.7917933 4.29700718,13.3074783 C2.51893602,10.203936 1.71686616,7.18648378 2.1649657,5.73016028 C2.49004298,4.67365911 3.32795286,3.96754324 4.59466201,3.54203877 C5.15798118,3.35281236 5.77136515,3.23277877 6.3964263,3.17131166 C6.81830771,3.12982479 7.18328901,3.12004274 7.45446382,3.12763158 C7.47892732,3.1283162 7.49326461,3.12889954 7.49675719,3.12908336 L7.60322072,1.1062763 L7.60322072,1.1062763 Z" id="Shape" sketch:type="MSShapeGroup"></path>
                <path d="M18.7215393,1.11148731 C18.7017067,1.11044349 18.670785,1.10918537 18.6294469,1.10802852 C18.2779311,1.09819133 17.8292628,1.11021632 17.3165074,1.16063953 C16.5491878,1.23609603 15.7891474,1.38482892 15.0679706,1.62708181 C13.2361752,2.24240628 11.8895407,3.37722991 11.3472518,5.13966899 C10.6936233,7.26396149 11.6268452,10.7748183 13.6577343,14.3196428 C15.8259344,18.1041373 18.9388013,21.4169132 22.4098574,23.3552957 L23.397477,21.5867679 C20.2724271,19.8416098 17.411548,16.7970043 15.4153257,13.3126893 C13.6372546,10.209147 12.8351847,7.19169478 13.2832843,5.73537128 C13.6083615,4.67887011 14.4462714,3.97275424 15.7129806,3.54724978 C16.2762997,3.35802337 16.8896837,3.23798978 17.5147449,3.17652267 C17.9366263,3.1350358 18.3016076,3.12525374 18.5727824,3.13284259 C18.5972459,3.1335272 18.6115832,3.13411055 18.6150758,3.13429437 L18.7215393,1.11148731 L18.7215393,1.11148731 Z" id="Shape-Copy" sketch:type="MSShapeGroup" transform="translate(17.269157, 12.230086) scale(-1, 1) translate(-17.269157, -12.230086) "></path>
                <path d="M10.6804722,23.2024051 L10.6804722,36.8292144 L10.6806764,36.8079707 C10.680571,36.8138652 10.680571,36.8138652 10.6804684,36.8227777 C10.6796407,36.9073891 10.6827154,37.0233842 10.6924352,37.1665807 C10.7069344,37.3801905 10.7336942,37.6119222 10.7756725,37.8576559 C10.8930938,38.5450202 11.1085391,39.2315243 11.450467,39.8817072 C12.4050573,41.6968805 14.1421592,42.8571066 16.697116,42.9964679 C18.1692073,43.0767638 19.4203073,42.700629 20.4214094,41.9279474 C21.2520076,41.286866 21.8644687,40.412925 22.2964055,39.3763895 C22.6038105,38.6386979 22.8028968,37.861009 22.9183543,37.085368 C22.9586438,36.8147036 22.9858038,36.5623942 23.0023332,36.3338453 C23.0126611,36.1910439 23.0171426,36.0836033 23.018136,36.017046 L23.018259,36.0005571 L23.018259,23.2941445 L23.0160148,23.3645307 C23.0163094,23.3599157 23.0194756,23.3281607 23.0271689,23.2734842 C23.0418007,23.1694953 23.0642013,23.0503499 23.0958274,22.9203086 C23.1867614,22.5464027 23.3311012,22.1731356 23.5363445,21.8321611 C24.1516167,20.8099982 25.1803052,20.2462997 26.9137625,20.3463068 C28.5661078,20.4416344 29.541113,21.0675196 30.0940381,22.0712804 C30.3008808,22.4467755 30.4359482,22.8577979 30.5100653,23.2726458 C30.5366484,23.421437 30.5533522,23.5599431 30.5621032,23.6837879 C30.56514,23.7267656 30.5669644,23.7645995 30.5678404,23.7967459 C30.5683346,23.8148802 30.5684217,23.8263278 30.568376,23.8305495 C30.5684022,23.8283685 30.5684022,23.8283685 30.568498,23.8234136 L30.568248,23.8351636 L30.568248,23.8469163 L30.568248,36.3691878 L32.7780008,36.3691878 L32.7780008,23.8469163 L32.7777508,23.8704191 C32.7778782,23.8639802 32.7778782,23.8639802 32.7779992,23.8544853 C32.7788831,23.7728823 32.7758838,23.6628147 32.7663601,23.5280338 C32.7522672,23.3285889 32.7262282,23.1126765 32.6853732,22.8840034 C32.5713385,22.2457287 32.3619164,21.6084379 32.0295608,21.0050912 C31.1132409,19.341636 29.4589847,18.2797193 27.0410366,18.1402223 C24.4746777,17.9921631 22.6749321,18.9783838 21.6431123,20.6925648 C21.313296,21.2404948 21.0893504,21.8196253 20.948661,22.398117 C20.8992189,22.6014148 20.8634247,22.7917987 20.8389709,22.9655924 C20.8232128,23.0775855 20.8145089,23.1648802 20.8107504,23.2237584 L20.8085062,23.2589157 L20.8085062,23.2941445 L20.8085062,36.0005571 L20.8086292,35.9840683 C20.8082463,36.0097247 20.8055158,36.0751849 20.798337,36.1744446 C20.7856887,36.349331 20.7644575,36.5465636 20.7326833,36.7600215 C20.6422446,37.367587 20.4872337,37.9731046 20.2566665,38.5264057 C19.612769,40.0715912 18.5589217,40.8849833 16.8174691,40.7899949 C15.0547818,40.6938484 14.0058102,39.9932307 13.4062567,38.8531673 C13.1813467,38.4254962 13.0345129,37.9576187 12.9538714,37.4855577 C12.9249404,37.3162006 12.9067166,37.1583872 12.897115,37.0169329 C12.8937609,36.9675186 12.89173,36.9238365 12.8907399,36.8864831 C12.8901657,36.8648197 12.8900549,36.8505924 12.8901155,36.8443925 C12.8900979,36.8460373 12.8900979,36.8460373 12.8900208,36.8504581 L12.8902251,36.8398373 L12.8902251,36.8292144 L12.8902251,23.2024051 L10.6804722,23.2024051 L10.6804722,23.2024051 Z" id="Shape" sketch:type="MSShapeGroup"></path>
                <path d="M31.6731244,43.3664 C34.0630995,43.3664 36.0005571,41.4289424 36.0005571,39.0389673 C36.0005571,36.6489922 34.0630995,34.7115346 31.6731244,34.7115346 C29.2831493,34.7115346 27.3456917,36.6489922 27.3456917,39.0389673 C27.3456917,41.4289424 29.2831493,43.3664 31.6731244,43.3664 L31.6731244,43.3664 Z M31.6731244,40.9725011 C30.6052632,40.9725011 29.7395907,40.1068285 29.7395907,39.0389673 C29.7395907,37.9711061 30.6052632,37.1054335 31.6731244,37.1054335 C32.7409856,37.1054335 33.6066582,37.9711061 33.6066582,39.0389673 C33.6066582,40.1068285 32.7409856,40.9725011 31.6731244,40.9725011 L31.6731244,40.9725011 Z" id="Shape" sketch:type="MSShapeGroup"></path>
                <path d="M11.0964771,24.63798 C9.83263148,23.7197424 9.19973042,21.7699943 9.68217125,20.2851941 L9.0720315,22.1630112 C9.55477758,20.6772715 11.2135211,19.4728415 12.7747324,19.4728415 L10.8002786,19.4728415 C12.3624778,19.4728415 14.0205387,20.678211 14.5029795,22.1630112 L13.8928398,20.2851941 C14.3755858,21.7709337 13.7415804,23.720323 12.4785339,24.63798 L11.7875055,25.1400415 L11.0964771,24.63798 Z" id="Polygon-1" sketch:type="MSShapeGroup"></path>
            </g>
        </g>
    </g>
</svg>