<?xml version="1.0" encoding="UTF-8" standalone="no"?>
<svg width="256px" height="47px" viewBox="0 0 256 47" version="1.1" xmlns="http://www.w3.org/2000/svg" xmlns:xlink="http://www.w3.org/1999/xlink" xmlns:sketch="http://www.bohemiancoding.com/sketch/ns">
    <!-- Generator: sketchtool 3.5.2 (25235) - http://www.bohemiancoding.com/sketch -->
    <title>Techstars Logo</title>
    <desc>Created with sketchtool.</desc>
    <defs></defs>
    <g id="Homepage" stroke="none" stroke-width="1" fill="none" fill-rule="evenodd" sketch:type="MSPage">
        <g id="Desktop-Retina---Simplified" sketch:type="MSArtboardGroup" transform="translate(-286.000000, -2991.000000)" fill="#FFFFFF">
            <g id="Logos" sketch:type="MSLayerGroup" transform="translate(0.000000, 2715.000000)">
                <g transform="translate(286.000000, 270.000000)" id="Techstars-Logo" sketch:type="MSShapeGroup">
                    <g transform="translate(0.000000, 6.000000)">
                        <path d="M0,46.5347 L28.752,46.5347 L32.119,44.2347 L32.141,44.1637 L37.094,28.2617 L26.756,20.3137 L0,46.5347 Z" id="Fill-1"></path>
                        <path d="M54.9666,28.262 L59.9336,44.233 L63.3086,46.535 L92.0586,46.535 L65.3046,20.314 L54.9666,28.262 Z" id="Fill-2"></path>
                        <path d="M46.0314,0.7814 L42.4864,11.2534 L31.5784,11.2804 L40.2984,17.9904 L37.0984,28.2744 L46.0314,22.1534 L54.9614,28.2744 L51.7604,17.9904 L60.4844,11.2804 L49.5704,11.2534 L46.0314,0.7814 Z" id="Fill-3"></path>
                        <path d="M28.7523,46.5347 L63.3083,46.5347 L46.0683,34.7577 L46.0313,34.7337 L28.7523,46.5347 Z" id="Fill-4"></path>
                        <path d="M96.3867,24.3037 L96.3867,21.9707 L100.3227,21.9707 L100.3227,16.9167 L103.2387,15.6537 L103.2387,21.9707 L108.1957,21.9707 L108.1957,24.3037 L103.2387,24.3037 L103.2387,40.0507 C103.2387,43.3067 103.5777,44.0837 105.9117,44.0837 C106.8827,44.0837 107.5647,44.0347 108.1957,43.9377 L108.1957,46.4647 C107.3207,46.5627 106.3497,46.6117 105.4257,46.6117 C101.4887,46.6117 100.3227,44.8617 100.3227,41.8477 L100.3227,24.3037 L96.3867,24.3037 Z" id="Fill-5"></path>
                        <path d="M125.4512,32.5175 C125.4512,27.0745 124.5762,23.8175 119.9102,23.8175 C115.2442,23.8175 114.3692,27.0745 114.3692,32.5175 L125.4512,32.5175 Z M114.3692,34.8495 L114.3692,36.7465 C114.3692,40.1485 115.2932,44.6675 119.9102,44.6675 C123.5552,44.6675 125.3532,42.3335 125.3052,39.0295 L128.3652,39.0295 C128.0252,44.9585 124.8182,46.9995 119.9102,46.9995 C115.6812,46.9995 111.4532,45.2985 111.4532,37.8635 L111.4532,31.8375 C111.4532,24.7415 114.4182,21.4855 119.9102,21.4855 C128.3652,21.4855 128.3652,27.5595 128.3652,34.8495 L114.3692,34.8495 Z" id="Fill-7"></path>
                        <path d="M144.6016,29.0175 C144.7466,25.9555 143.6286,23.8175 140.2756,23.8175 C138.4766,23.8175 136.9706,24.8385 136.3396,26.6365 C135.9496,27.7535 135.6586,31.1075 135.6586,34.3655 C135.6586,38.7875 135.6586,44.6675 140.1776,44.6675 C144.0176,44.6675 144.5036,42.2385 144.6486,39.2735 L147.5646,39.2735 C147.8086,45.8825 143.1426,46.9995 140.8596,46.9995 C132.5486,46.9995 132.5486,40.4395 132.5486,34.3655 C132.5486,31.9335 132.6446,28.0945 133.2776,26.2475 C134.5406,22.7485 137.3106,21.4855 140.6636,21.4855 C144.8926,21.4855 147.7596,23.8665 147.5176,29.0175 L144.6016,29.0175 Z" id="Fill-9"></path>
                        <path d="M152.5723,46.5136 L152.5723,11.4246 L155.4883,11.4246 L155.4883,24.9846 L155.5863,24.9846 C156.9963,22.9436 158.8903,21.4856 161.5153,21.4856 C167.5903,21.4856 168.2223,26.0046 168.2223,29.2116 L168.2223,46.5136 L165.3063,46.5136 L165.3063,29.3586 C165.3063,26.4916 164.1873,23.8176 160.7873,23.8176 C158.1623,23.8176 155.4883,25.6166 155.4883,31.1076 L155.4883,46.5136 L152.5723,46.5136 Z" id="Fill-11"></path>
                        <path d="M180.666,47 C175.369,47 173.279,44.424 173.328,39.225 L176.291,39.225 C176.291,42.578 177.07,44.812 180.812,44.812 C183.631,44.812 184.99,43.209 184.99,40.488 C184.99,34.072 173.959,35.725 173.959,27.608 C173.959,23.089 177.07,21.485 181.346,21.485 C186.207,21.485 187.762,24.839 187.762,28.58 L184.895,28.58 C184.748,25.47 183.922,23.817 180.617,23.817 C178.527,23.817 176.875,25.179 176.875,27.365 C176.875,33.49 187.906,31.838 187.906,40.051 C187.906,44.668 185.234,47 180.666,47" id="Fill-13"></path>
                        <path d="M190.873,24.3037 L190.873,21.9707 L194.811,21.9707 L194.811,16.9167 L197.727,15.6537 L197.727,21.9707 L202.684,21.9707 L202.684,24.3037 L197.727,24.3037 L197.727,40.0507 C197.727,43.3067 198.066,44.0837 200.398,44.0837 C201.371,44.0837 202.051,44.0347 202.684,43.9377 L202.684,46.4647 C201.809,46.5627 200.836,46.6117 199.914,46.6117 C195.977,46.6117 194.811,44.8617 194.811,41.8477 L194.811,24.3037 L190.873,24.3037 Z" id="Fill-15"></path>
                        <path d="M219.0625,33.9746 C214.8845,34.1206 208.5665,33.6346 208.5665,39.6136 C208.5665,42.3826 209.9745,44.6676 212.9885,44.6676 C216.3415,44.6676 219.0625,41.6546 219.0625,38.4476 L219.0625,33.9746 Z M219.2575,43.5016 L219.1605,43.5016 C217.6055,45.8336 215.2245,46.9996 212.2105,46.9996 C207.8375,46.9996 205.4555,44.0356 205.4555,39.7596 C205.4555,31.1566 214.1055,32.0316 219.0625,31.6426 L219.0625,29.6016 C219.0625,26.0046 217.9945,23.8176 214.1055,23.8176 C211.4335,23.8176 209.2945,25.1296 209.2945,28.0456 L206.1855,28.0456 C206.4275,23.3316 210.0725,21.4856 214.3495,21.4856 C216.8285,21.4856 221.9785,21.7286 221.9785,27.9966 L221.9785,40.3416 C221.9785,42.0916 221.9785,43.6466 222.2715,46.5136 L219.2575,46.5136 L219.2575,43.5016 Z" id="Fill-17"></path>
                        <path d="M231.2637,25.2754 L231.3617,25.2754 C232.5757,22.9434 235.1527,21.4854 238.1177,21.4854 L238.1177,24.4494 C233.9867,24.1094 231.2637,26.5874 231.2637,30.7184 L231.2637,46.5134 L228.3477,46.5134 L228.3477,21.9704 L231.2637,21.9704 L231.2637,25.2754 Z" id="Fill-19"></path>
                        <path d="M247.9355,47 C242.6385,47 240.5485,44.424 240.5975,39.225 L243.5605,39.225 C243.5605,42.578 244.3395,44.812 248.0815,44.812 C250.9005,44.812 252.2595,43.209 252.2595,40.488 C252.2595,34.072 241.2285,35.725 241.2285,27.608 C241.2285,23.089 244.3395,21.485 248.6155,21.485 C253.4765,21.485 255.0315,24.839 255.0315,28.58 L252.1645,28.58 C252.0175,25.47 251.1915,23.817 247.8865,23.817 C245.7965,23.817 244.1445,25.179 244.1445,27.365 C244.1445,33.49 255.1755,31.838 255.1755,40.051 C255.1755,44.668 252.5035,47 247.9355,47" id="Fill-21"></path>
                    </g>
                </g>
            </g>
        </g>
    </g>
</svg>