<?xml version="1.0" encoding="UTF-8" standalone="no"?>
<svg width="22px" height="25px" viewBox="0 0 22 25" version="1.1" xmlns="http://www.w3.org/2000/svg" xmlns:xlink="http://www.w3.org/1999/xlink" xmlns:sketch="http://www.bohemiancoding.com/sketch/ns">
    <!-- Generator: Sketch 3.5.2 (25235) - http://www.bohemiancoding.com/sketch -->
    <title>Third Icon</title>
    <desc>Created with Sketch.</desc>
    <defs>
        <path id="path-1" d="M0,0 L21.621907,0 L21.621907,25 L0,25"></path>
    </defs>
    <g id="Homepage" stroke="none" stroke-width="1" fill="none" fill-rule="evenodd" sketch:type="MSPage">
        <g id="Mobile-Dashboard" sketch:type="MSArtboardGroup" transform="translate(-224.000000, -630.000000)">
            <g id="Third-Icon" sketch:type="MSLayerGroup" transform="translate(224.000000, 630.000000)">
                <mask id="mask-2" sketch:name="Clip 2" fill="white">
                    <use xlink:href="#path-1"></use>
                </mask>
                <g id="Clip-2"></g>
                <path d="M20.0399023,8.3916 C20.0399023,7.3706 19.1952047,6.5391 18.1458558,6.5271 C17.1149256,6.5151 16.2461814,7.3591 16.238507,8.3801 C16.2308326,9.4076 17.0919023,10.2531 18.1438093,10.2516 C19.1870186,10.2506 20.0399023,9.4136 20.0399023,8.3916 M17.3753442,11.7291 C15.1804605,11.2011 14.3700419,9.1096 14.7512047,7.5871 C15.1374837,6.0426 16.6032977,4.9421 18.2686465,4.9916 C19.9038093,5.0401 21.320507,6.2641 21.5783674,7.8336 C21.8428791,9.4421 20.8968791,11.1946 18.9603674,11.7056 L18.9603674,12.0571 C18.9603674,14.1616 18.956786,16.2656 18.9613907,18.3701 C18.9649721,20.2111 18.3581814,21.8286 16.9936698,23.1026 C15.0689256,24.9006 12.7752977,25.4581 10.2499023,24.6141 C7.77157674,23.7861 6.31548372,22.0216 5.85655349,19.4936 C5.79771628,19.1701 5.7926,18.8361 5.77929767,18.5066 C5.76650698,18.1966 5.77622791,17.8861 5.77622791,17.5951 C5.28557674,17.4611 4.80208837,17.3596 4.34111163,17.1976 C2.97404186,16.7166 1.78143721,15.9716 0.84515814,14.8696 C0.443018605,14.3966 0.131948837,13.8721 0.0316697674,13.2526 C0.0066,13.0966 0.00199534884,12.9366 0.00148372093,12.7781 C-5.11627907e-05,10.1316 -0.000562790698,7.4846 0.000972093023,4.8376 C0.00199534884,3.1726 0.761251163,1.9581 2.27566977,1.1916 C2.3478093,1.1546 2.40613488,1.0646 2.44041395,0.9866 C2.82208837,0.1191 3.84687907,-0.2499 4.69515814,0.1796 C5.55213488,0.6131 5.84222791,1.6586 5.32804186,2.4581 C4.80106512,3.2766 3.63046047,3.4471 2.88706512,2.8141 C2.84664651,2.7796 2.80776279,2.7436 2.7566,2.6976 C2.05106512,3.1366 1.59929767,3.7426 1.59315814,4.5626 C1.57269302,7.3551 1.58446047,10.1476 1.58650698,12.9401 C1.58650698,13.2536 1.7538093,13.5076 1.93390233,13.7491 C2.28897209,14.2256 2.74073953,14.6046 3.23599535,14.9326 C4.2213907,15.5851 5.2866,16.0341 6.49506512,16.0731 C7.21646047,16.0966 7.90357674,15.9251 8.5646,15.6531 C9.5510186,15.2481 10.4274372,14.6886 11.1217163,13.8806 C11.4368791,13.5136 11.5908791,13.1061 11.5872977,12.6091 C11.570414,9.9691 11.5847395,7.3286 11.5765535,4.6886 C11.5734837,3.8191 11.1529256,3.1681 10.4023674,2.6951 C10.0375767,3.0366 9.62008837,3.2216 9.11562326,3.1931 C8.22385581,3.1426 7.53264651,2.4111 7.56743721,1.5466 C7.60273953,0.6661 8.34408837,-0.0249 9.24506512,0.0051 C9.9506,0.0291 10.4320419,0.3881 10.7231581,1.0101 C10.756414,1.0811 10.8147395,1.1591 10.8832977,1.1936 C12.3716233,1.9386 13.1452047,3.1331 13.1579953,4.7591 C13.1794837,7.4456 13.1641349,10.1321 13.1641349,12.8186 C13.1641349,13.5396 12.8832512,14.1646 12.4350651,14.7131 C11.1877163,16.2391 9.54692558,17.1301 7.60478605,17.5191 C7.52650698,17.5346 7.44822791,17.5496 7.3730186,17.5641 C7.17092558,19.8301 7.92762326,21.7296 10.0068791,22.8456 C13.2040419,24.5611 17.1942279,22.3551 17.3584605,18.7941 C17.3886465,18.1471 17.3743209,17.4976 17.3748326,16.8496 C17.3763674,15.1431 17.3753442,13.4366 17.3753442,11.7291" id="Fill-1" fill="#FFFFFF" sketch:type="MSShapeGroup" mask="url(#mask-2)"></path>
            </g>
        </g>
    </g>
</svg>