<?xml version="1.0" encoding="UTF-8" standalone="no"?>
<svg width="24px" height="20px" viewBox="0 0 24 20" version="1.1" xmlns="http://www.w3.org/2000/svg" xmlns:xlink="http://www.w3.org/1999/xlink" xmlns:sketch="http://www.bohemiancoding.com/sketch/ns">
    <!-- Generator: sketchtool 3.5.2 (25235) - http://www.bohemiancoding.com/sketch -->
    <title>Twitter</title>
    <desc>Created with sketchtool.</desc>
    <defs></defs>
    <g id="Homepage" stroke="none" stroke-width="1" fill="none" fill-rule="evenodd" sketch:type="MSPage">
        <g id="Desktop-Retina---Simplified" sketch:type="MSArtboardGroup" transform="translate(-1118.000000, -4322.000000)" fill="#44A7F0">
            <g id="Contact-Form" sketch:type="MSLayerGroup" transform="translate(562.000000, 4104.000000)">
                <g id="Twitter" transform="translate(556.000000, 217.000000)" sketch:type="MSShapeGroup">
                    <g transform="translate(0.000000, 1.000000)" id="Fill-1">
                        <path d="M20.8747458,2.99630964 C21.7186405,2.93903194 22.5040774,2.65199885 23.3284097,2.42574273 C23.286805,2.49209094 23.2491955,2.56143194 23.2029528,2.62441899 C22.6415656,3.38859741 21.991229,4.06778014 21.2433097,4.64925928 C21.1017804,4.7592564 21.0407511,4.87487079 21.0364804,5.05103194 C21.0103512,6.1332305 20.9501026,7.21321899 20.7073629,8.27267223 C19.8708156,11.9233888 17.9939225,14.8828132 14.8813347,17.0021801 C13.2015815,18.1459384 11.3398424,18.8508132 9.32307325,19.073478 C7.26566377,19.300655 5.21537208,19.2626694 3.21513455,18.6196305 C2.17690115,18.2859096 1.19262521,17.8337197 0.246050616,17.2952449 C0.162565795,17.2477744 0.0841782318,17.1913715 4.59212424e-06,17.0945888 C2.5421128,17.2520104 4.85663533,16.6535873 6.95744038,15.0709456 C5.92412056,14.956206 4.99917487,14.6770463 4.20372708,14.0702435 C3.40602916,13.461737 2.83375862,12.6896852 2.51208031,11.703855 C3.20494003,11.7247125 3.85885854,11.7713082 4.50556742,11.6125974 C2.20390284,10.8489715 0.954064351,9.28589813 0.823280649,6.83000173 C1.4736173,7.1313082 2.14053152,7.32026935 2.89836981,7.38192115 C0.781170869,5.59194705 0.363884527,3.46314129 1.44569719,0.937857842 C1.86495814,1.34929957 2.24022654,1.71589525 2.61370402,2.08433266 C5.01024189,4.44878734 7.9064488,5.69715568 11.240377,5.9678895 C11.2915333,5.97203338 11.3432865,5.96839597 11.3584865,5.96839597 C11.3584865,5.55598734 11.3646399,5.16052259 11.3574762,4.76528806 C11.319086,2.64150101 12.9637095,0.565368633 15.2302443,0.141725468 C16.7668609,-0.145445755 18.1843579,0.201627626 19.3660952,1.28184633 C19.6111768,1.50589237 19.8522634,1.58237007 20.155114,1.46753842 C20.8402589,1.20771683 21.5248988,0.946606043 22.2082987,0.682318273 C22.3753143,0.617719712 22.5368652,0.538801727 22.7572872,0.441604604 C22.3671403,1.52140892 21.7100073,2.31441036 20.8747458,2.99630964"></path>
                    </g>
                </g>
            </g>
        </g>
    </g>
</svg>