<?xml version="1.0" encoding="UTF-8" standalone="no"?>
<svg width="453px" height="59px" viewBox="0 0 453 59" version="1.1" xmlns="http://www.w3.org/2000/svg" xmlns:xlink="http://www.w3.org/1999/xlink" xmlns:sketch="http://www.bohemiancoding.com/sketch/ns">
    <!-- Generator: sketchtool 3.5.2 (25235) - http://www.bohemiancoding.com/sketch -->
    <title>BVSD Logo</title>
    <desc>Created with sketchtool.</desc>
    <defs></defs>
    <g id="Homepage" stroke="none" stroke-width="1" fill="none" fill-rule="evenodd" sketch:type="MSPage">
        <g id="Desktop-Retina---Simplified" sketch:type="MSArtboardGroup" transform="translate(-1182.000000, -2985.000000)" fill="#FFFFFF">
            <g id="Logos" sketch:type="MSLayerGroup" transform="translate(0.000000, 2715.000000)">
                <g transform="translate(286.000000, 270.000000)" id="BVSD-Logo" sketch:type="MSShapeGroup">
                    <g transform="translate(896.000000, 0.000000)">
                        <path d="M11.5161708,2.85166667 C11.437696,4.34633333 11.3788399,6.88333333 11.3788399,8.47633333 L11.3788399,11.387 L12.4578679,12.6063333 C13.6546079,13.9436667 16.1461815,17.6213333 17.185972,19.5683333 C19.3440279,23.6 20.7565735,26.6286667 22.2083565,30.385 C25.0334478,37.6223333 26.857986,45.017 26.9364607,49.678 C26.9756981,51.2906667 26.916842,51.625 26.6814178,51.625 C26.4656122,51.625 26.3282813,51.212 26.1517131,50.0516667 C24.4056498,38.704 20.6192427,28.4773333 14.8121106,19.4503333 C11.5750268,14.455 7.53357678,9.81366667 4.82619762,8.024 L4.02183135,7.47333333 L3.96297528,12.449 C3.92373791,16.933 3.9433566,17.4246667 4.23763694,17.6016667 C5.12047797,18.113 7.67090761,20.1583333 8.74993553,21.181 C13.2229967,25.488 18.8731793,34.1216667 22.4241621,42.0866667 C23.9544199,45.5086667 24.327175,47.0033333 23.6601396,47.0033333 C23.4835714,47.0033333 23.130435,46.4723333 22.8165359,45.784 C17.1663533,33.0006667 8.92650374,22.6166667 1.58911385,19.0176667 C1.00055317,18.7226667 0.392373791,18.4866667 0.255042964,18.4866667 C0.0588560686,18.4866667 0,19.5486667 0,23.6983333 L0,28.91 L0.82398496,29.323 C3.64907625,30.7586667 7.51395809,33.5906667 10.4175241,36.3243333 C15.7145703,41.3196667 21.9533136,49.8156667 25.3473469,56.699 C26.3479,58.7246667 26.5833243,59 27.3680719,59 C28.1528195,59 28.3882437,58.7246667 29.4672717,56.64 C30.330494,54.9683333 31.213335,53.4343333 32.0569387,52.1166667 C32.292363,51.743 32.7632115,51.035 33.0574919,50.5433333 C33.3713909,50.0516667 34.3719441,48.6356667 35.2940225,47.3966667 C41.2188667,39.2743333 47.9088398,33.1186667 54.3633887,29.8343333 L55.0500428,29.4803333 L55.2854671,25.4093333 C55.5797474,20.4533333 55.5797474,18.88 55.3247045,18.88 C55.2069923,18.88 54.34377,19.2733333 53.4020729,19.7453333 C46.5159129,23.2066667 38.7665305,32.391 33.2340601,43.6403333 C32.3904564,45.3316667 31.6253275,46.8263333 31.5272341,46.964 C31.2329537,47.3376667 30.7621052,46.846 30.9190547,46.3346667 C31.723421,43.5616667 35.3921159,36.462 38.5507249,31.565 C41.8662835,26.432 46.7709558,20.9646667 49.9491835,18.88 L51.5382974,17.8376667 L51.6560095,14.4746667 C51.8325777,9.89233333 51.8325777,8.06333333 51.6167721,8.06333333 C51.185161,8.06333333 49.1840546,9.63666667 47.516466,11.2886667 C40.4537378,18.2113333 34.0776637,29.5786667 30.7032491,41.2016667 C29.9969763,43.6403333 29.0945166,47.731 28.8198549,49.678 C28.564812,51.4283333 28.4078624,51.8413333 28.0743447,51.6446667 C27.7800644,51.4676667 27.7996831,50.5433333 28.1528195,47.5933333 C29.0748979,39.6676667 33.5283404,27.671 38.8057679,18.88 C40.4929752,16.048 41.3169601,14.927 43.0826422,12.9013333 L44.3382383,11.446 L44.3382383,6.018 C44.3382383,3.02866667 44.2597636,0.59 44.1616701,0.59 C43.8477711,0.59 40.316407,4.44466667 39.1981417,6.018 C33.5283404,14.0026667 29.5065091,26.5303333 28.1724382,40.415 C27.99587,42.362 27.8977765,42.775 27.6231149,42.834 C27.0934102,42.9323333 26.9364607,42.3423333 26.7991299,39.825 C26.4067561,32.9613333 24.582218,23.9736667 22.2475939,17.405 C19.9129699,10.8363333 16.8328356,5.546 13.1249033,1.69133333 L11.6338829,0.137666667 L11.5161708,2.85166667 Z" id="Fill-1"></path>
                        <path d="M25.5042964,1.61266667 C24.013276,2.183 22.4830182,3.776 22.0710257,5.15266667 C21.168566,8.22066667 22.30645,11.2296667 24.9353544,12.685 C25.8966702,13.216 26.1713318,13.275 27.7604457,13.275 C29.2318474,13.275 29.6830773,13.1963333 30.4874435,12.803 C31.723421,12.1933333 32.8809236,11.033 33.4106283,9.853 C34.0188076,8.57466667 34.0188076,5.97866667 33.4106283,4.70033333 C32.8809236,3.52033333 31.723421,2.36 30.5070622,1.77 C29.1337539,1.10133333 26.9560794,1.02266667 25.5042964,1.61266667" id="Fill-4"></path>
                        <g id="Logo-Type" transform="translate(68.139276, 13.808511)">
                            <path d="M8.38570477,20.5589506 C8.99629366,20.5589506 9.5364151,20.3067245 10.0064563,19.8007224 C10.4761102,19.2954951 10.7111308,18.5140202 10.7111308,17.4562976 C10.7111308,16.4690898 10.4761102,15.7170607 10.0064563,15.1998227 C9.5364151,14.6829722 8.99629366,14.4241594 8.38570477,14.4241594 L6.5535509,14.4241594 L6.5535509,20.5589506 L8.38570477,20.5589506 Z M8.13906867,9.98172445 C8.82012502,9.98172445 9.33701543,9.72949829 9.68935271,9.22349619 C10.04169,8.71826898 10.2178586,8.12509194 10.2178586,7.44319018 C10.2178586,6.73804177 10.04169,6.12704229 9.68935271,5.60980431 C9.33701543,5.09295377 8.82012502,4.83414106 8.13906867,4.83414106 L6.5535509,4.83414106 L6.5535509,9.98172445 L8.13906867,9.98172445 Z M9.90075508,0.109646703 C12.2494122,0.109646703 13.9816726,0.679577095 15.0975364,1.81943788 C16.213013,2.96007355 16.7713321,4.48156685 16.7713321,6.38546756 C16.7713321,7.04373522 16.6946697,7.6845679 16.5421193,8.30680326 C16.3891817,8.9298135 16.1545483,9.49393223 15.8378319,9.99915944 C15.5207283,10.5051615 15.1153469,10.9336748 14.6220747,11.286249 C14.1288025,11.6388232 13.5298291,11.8856252 12.8251545,12.0266548 L12.8251545,12.0971697 C13.6471458,12.1676845 14.3518204,12.3850407 14.9391782,12.7492382 C15.5261489,13.1142107 16.0078056,13.566358 16.3837611,14.1068427 C16.7593294,14.6477147 17.0353915,15.2408918 17.2115601,15.8871487 C17.3877287,16.5341805 17.4760067,17.186249 17.4760067,17.8441292 C17.4760067,18.9254859 17.3350717,19.924317 17.0532019,20.84101 C16.7713321,21.7577029 16.3311041,22.5453769 15.7321307,23.2032572 C15.1327701,23.8615248 14.3518204,24.3725637 13.3888942,24.7367612 C12.4255808,25.1017336 11.2628678,25.283445 9.90075508,25.283445 L7.74367653e-05,25.283445 L7.74367653e-05,0.109646703 L9.90075508,0.109646703 Z" id="Fill-1"></path>
                            <path d="M24.8746637,18.7078198 C24.9215129,19.4718597 25.0155986,20.077435 25.1565335,20.5237707 C25.2974684,20.9704938 25.4794448,21.2761873 25.7028499,21.4404636 C25.9254806,21.6051274 26.2135454,21.6868781 26.5658827,21.6868781 C26.9182199,21.6868781 27.2117053,21.6051274 27.4467259,21.4404636 C27.6813593,21.2761873 27.8637228,20.9704938 27.9930422,20.5237707 C28.1215873,20.077435 28.2098652,19.4718597 28.2571016,18.7078198 C28.3039509,17.9441673 28.3275691,16.9627712 28.3275691,15.7640189 C28.3275691,14.5652666 28.3039509,13.5780588 28.2571016,12.8023956 C28.2098652,12.0267323 28.1215873,11.4157329 27.9930422,10.9690097 C27.8637228,10.522674 27.6813593,10.2169806 27.4467259,10.0523168 C27.2117053,9.88804045 26.9182199,9.8051274 26.5658827,9.8051274 C26.2135454,9.8051274 25.9254806,9.88804045 25.7028499,10.0523168 C25.4794448,10.2169806 25.2974684,10.522674 25.1565335,10.9690097 C25.0155986,11.4157329 24.9215129,12.0267323 24.8746637,12.8023956 C24.8274273,13.5780588 24.8041962,14.5652666 24.8041962,15.7640189 C24.8041962,16.9627712 24.8274273,17.9441673 24.8746637,18.7078198 M34.4055808,19.4307906 C34.2294121,20.6291555 33.8592644,21.6930772 33.2955248,22.6213935 C32.7317851,23.5504846 31.9156016,24.2908905 30.8469742,24.842611 C29.7779597,25.3947189 28.3508001,25.6713541 26.5658827,25.6713541 C24.7101106,25.6713541 23.2419095,25.418353 22.1616666,24.9131258 C21.0810366,24.4078986 20.2706608,23.7027502 19.7305394,22.7976806 C19.1900307,21.8933859 18.8435012,20.8356633 18.691338,19.6245127 C18.5380132,18.4141371 18.4621252,17.1158117 18.4621252,15.7287615 C18.4621252,14.4831284 18.5504031,13.2607421 18.7265717,12.0619898 C18.9027403,10.86285 19.2725009,9.79389152 19.8362406,8.85356449 C20.3999802,7.9136249 21.2157765,7.15578408 22.2851783,6.57926714 C23.3534184,6.00352509 24.780578,5.71565406 26.5658827,5.71565406 C28.4212676,5.71565406 29.8894686,5.97989099 30.9700987,6.5087523 C32.0503416,7.03761361 32.8607173,7.76058445 33.4012259,8.67727738 C33.9413474,9.59397032 34.2878769,10.6575046 34.4408145,11.8678802 C34.5933649,13.0790307 34.6696402,14.3773562 34.6696402,15.7640189 C34.6696402,17.0100394 34.5817494,18.2316509 34.4055808,19.4307906" id="Fill-3"></path>
                            <path d="M42.2801642,6.20914171 L42.2801642,18.7960408 C42.2801642,19.5953382 42.3974809,20.1710802 42.6325015,20.5236545 C42.8671349,20.8762287 43.2667086,21.0525158 43.8304482,21.0525158 C44.3941879,21.0525158 44.7933744,20.8762287 45.028395,20.5236545 C45.2630284,20.1710802 45.3807323,19.5953382 45.3807323,18.7960408 L45.3807323,6.20914171 L51.7228034,6.20914171 L51.7228034,25.2834062 L45.5921346,25.2834062 L45.5921346,22.9564165 L45.5216672,22.9564165 C44.7229069,24.7665557 43.1842384,25.6712379 40.9060488,25.6712379 C40.2013742,25.6712379 39.5497438,25.6061472 38.9507705,25.4771283 C38.3517971,25.347722 37.8287117,25.0892967 37.382676,24.7014651 C36.936253,24.3140209 36.5839157,23.7847721 36.3256641,23.1148811 C36.0670253,22.4449901 35.9380931,21.6050112 35.9380931,20.5941693 L35.9380931,6.20914171 L42.2801642,6.20914171 Z" id="Fill-5"></path>
                            <path d="M60.0026521,25.283445 L53.660581,25.283445 L53.660581,0.109646703 L60.0026521,0.109646703 L60.0026521,25.283445 Z" id="Fill-7"></path>
                            <path d="M67.7887252,18.3023982 C67.8355745,18.9843 67.9238524,19.5309837 68.0531718,19.9416745 C68.182104,20.3535277 68.3640804,20.6413987 68.599101,20.8056751 C68.8337344,20.9703388 69.1392224,21.052477 69.5151779,21.052477 C69.8675152,21.052477 70.1610006,20.9703388 70.3960211,20.8056751 C70.6306545,20.6413987 70.8130181,20.3535277 70.9423375,19.9416745 C71.0712697,19.5309837 71.1591605,18.9843 71.2063969,18.3023982 C71.2532461,17.6208839 71.2768643,16.7747058 71.2768643,15.7638639 C71.2768643,14.7297754 71.2532461,13.871974 71.2063969,13.1900722 C71.1591605,12.5085579 71.0712697,11.9622616 70.9423375,11.5507959 C70.8130181,11.1397176 70.6306545,10.8514592 70.3960211,10.6867954 C70.1610006,10.522519 69.8675152,10.4399934 69.5151779,10.4399934 C69.1392224,10.4399934 68.8337344,10.522519 68.599101,10.6867954 C68.3640804,10.8514592 68.182104,11.1397176 68.0531718,11.5507959 C67.9238524,11.9622616 67.8355745,12.5085579 67.7887252,13.1900722 C67.7414888,13.871974 67.7182578,14.7297754 67.7182578,15.7638639 C67.7182578,16.7747058 67.7414888,17.6208839 67.7887252,18.3023982 L67.7887252,18.3023982 Z M77.6189354,0.109569215 L77.6189354,25.2833675 L71.4882667,25.2833675 L71.4882667,22.6743184 L71.4177993,22.6743184 C71.0182255,23.732041 70.4781041,24.4960809 69.7970478,24.9660507 C69.1156042,25.4360205 68.21153,25.6711991 67.0840507,25.6711991 C64.970027,25.6711991 63.4902104,24.8370318 62.6446009,23.1679222 C61.7989914,21.4992002 61.3761867,18.890151 61.3761867,15.3407749 C61.3761867,13.5310231 61.5171216,12.014954 61.7989914,10.7925676 C62.0808613,9.57056869 62.4738528,8.58374836 62.9795149,7.83094431 C63.4840155,7.07891516 64.1007993,6.53843052 64.8290921,6.20910297 C65.5569977,5.88016286 66.3557579,5.71549908 67.2249856,5.71549908 C68.1174443,5.71549908 68.9216251,5.90960862 69.6386896,6.29744024 C70.3545925,6.68527187 70.8772906,7.37259785 71.2063969,8.35980562 L71.2768643,8.35980562 L71.2768643,0.109569215 L77.6189354,0.109569215 Z" id="Fill-9"></path>
                            <path d="M88.4529584,10.2990412 C88.2063223,9.82907145 87.7424761,9.59389283 87.0614197,9.59389283 C86.4035944,9.59389283 85.9513637,9.82907145 85.7047276,10.2990412 C85.4580915,10.7693985 85.334967,11.5098043 85.334967,12.5202587 L85.334967,13.3664368 L88.8231061,13.3664368 L88.8231061,12.5202587 C88.8231061,11.5098043 88.6995945,10.7693985 88.4529584,10.2990412 L88.4529584,10.2990412 Z M85.334967,19.3249409 C85.334967,20.3594169 85.5107485,21.0471303 85.863473,21.3873063 C86.2158103,21.7286446 86.6146096,21.8987326 87.0614197,21.8987326 C87.6251594,21.8987326 88.0653874,21.6693656 88.382491,21.2110192 C88.6995945,20.7526727 88.8579527,19.8774363 88.8579527,18.5845351 L94.5662039,18.5845351 C94.5189674,20.9351589 93.9196069,22.7042291 92.7688965,23.8905831 C91.617799,25.0780996 89.7271804,25.6712766 87.0966535,25.6712766 C85.5692133,25.6712766 84.2895707,25.5004137 83.2561771,25.1598503 C82.2220091,24.8196743 81.3884023,24.2551681 80.7545824,23.4674941 C80.1203753,22.680595 79.6677574,21.6519307 79.3978902,20.3826635 C79.1276359,19.1133964 78.9925088,17.5740806 78.9925088,15.7639414 C78.9925088,13.9305556 79.1450592,12.3792291 79.4509344,11.1099619 C79.7556481,9.84069477 80.2373048,8.80660625 80.8951301,8.0073089 C81.5525682,7.208399 82.3927571,6.62645784 83.4145353,6.26187287 C84.4363134,5.89806278 85.6632989,5.71557657 87.0966535,5.71557657 C88.3646805,5.71557657 89.4747365,5.86861702 90.4260472,6.17392304 C91.3773579,6.4796165 92.1757309,6.99065537 92.8219407,7.70781455 C93.4677633,8.42497373 93.94942,9.36452587 94.2665236,10.5280208 C94.5836271,11.6915156 94.7423725,13.143269 94.7423725,14.8825059 L94.7423725,16.821664 L85.334967,16.821664 L85.334967,19.3249409 Z" id="Fill-10"></path>
                            <path d="M101.753342,6.20914171 L101.753342,9.24127988 L101.82381,9.24127988 C102.176147,8.08979577 102.739887,7.21378448 103.515029,6.61440833 C104.290171,6.01541962 105.147396,5.71553783 106.087091,5.71553783 L107.108869,5.71553783 L107.108869,11.6387845 C106.826999,11.5919037 106.556745,11.5566463 106.298493,11.5330122 C106.039855,11.5097656 105.781603,11.4977548 105.523351,11.4977548 C104.395872,11.4977548 103.520449,11.7445567 102.898632,12.2381606 C102.276041,12.7317645 101.964745,13.6132 101.964745,14.8824672 L101.964745,25.2834062 L95.6226736,25.2834062 L95.6226736,6.20914171 L101.753342,6.20914171 Z" id="Fill-11"></path>
                            <path d="M119.86344,0.10953047 L122.50597,19.0780227 L122.576437,19.0780227 L125.218967,0.10953047 L132.195245,0.10953047 L126.769251,25.2833287 L118.313156,25.2833287 L112.992863,0.10953047 L119.86344,0.10953047 Z" id="Fill-12"></path>
                            <path d="M140.052211,20.7352765 C140.357312,20.2184259 140.51025,19.4307519 140.51025,18.3730293 L140.51025,16.081297 L140.439782,16.081297 C140.251611,16.3401097 139.963933,16.4985743 139.576362,16.5570784 C139.189179,16.6163574 138.760179,16.7511879 138.290525,16.9627325 C137.797253,17.1979111 137.456531,17.5090288 137.268747,17.8968604 C137.080576,18.284692 136.986877,18.7961183 136.986877,19.4307519 C136.986877,20.0653855 137.127812,20.5710001 137.409682,20.946821 C137.691552,21.3230293 138.06712,21.5109397 138.537161,21.5109397 C139.241836,21.5109397 139.746723,21.2525144 140.052211,20.7352765 M140.651185,24.2610185 C140.603948,23.9084443 140.557099,23.5326235 140.51025,23.1327811 L140.439782,23.1327811 C140.087445,23.9789592 139.529126,24.6135927 138.766374,25.0366818 C138.002847,25.4597708 137.127812,25.6713153 136.141268,25.6713153 C135.177954,25.6713153 134.362158,25.5477206 133.692717,25.3009187 C133.023276,25.0541168 132.47696,24.6841076 132.054155,24.1905037 C131.63135,23.6968998 131.325862,23.1095344 131.138078,22.4276327 C130.949907,21.7461183 130.856208,20.9940892 130.856208,20.1711577 C130.856208,19.2780989 130.944486,18.5024356 131.120655,17.844168 C131.296824,17.1862878 131.584114,16.6163574 131.983688,16.1343768 C132.382874,15.6523962 132.922996,15.2409305 133.604439,14.8999796 C134.285495,14.5598037 135.131105,14.2715452 136.141268,14.0363666 L138.642862,13.4369904 C139.323919,13.2727141 139.805575,13.0313364 140.087445,12.7140196 C140.369315,12.3967028 140.51025,11.9445554 140.51025,11.3568026 C140.51025,10.1816844 139.969741,9.59393157 138.889498,9.59393157 C138.278522,9.59393157 137.832487,9.76479446 137.550617,10.1049704 C137.268747,10.4459213 137.115809,11.1220114 137.092578,12.1324659 L131.596117,12.1324659 C131.596117,10.7458031 131.842753,9.6353881 132.336025,8.80044589 C132.829297,7.96627857 133.439886,7.32002167 134.168179,6.86128776 C134.896084,6.40294129 135.683229,6.09802272 136.528839,5.94459483 C137.374448,5.79232926 138.161206,5.71561531 138.889498,5.71561531 C139.993359,5.71561531 141.008943,5.80356514 141.937409,5.98023969 C142.865102,6.15613935 143.663862,6.47345613 144.333303,6.9318026 C145.002744,7.39014907 145.51886,8.01354676 145.883587,8.80044589 C146.247153,9.58811991 146.429516,10.6047734 146.429516,11.8504065 L146.429516,21.1583655 C146.429516,22.0518118 146.46475,22.8390984 146.535217,23.5206127 C146.605685,24.2025144 146.769851,24.7898798 147.02849,25.2834837 L140.897821,25.2834837 C140.780117,24.9545436 140.698034,24.6135927 140.651185,24.2610185" id="Fill-13"></path>
                            <path d="M154.991622,25.283445 L148.649551,25.283445 L148.649551,0.109646703 L154.991622,0.109646703 L154.991622,25.283445 Z" id="Fill-14"></path>
                            <path d="M163.376862,25.283445 L157.034791,25.283445 L157.034791,0.109646703 L163.376862,0.109646703 L163.376862,25.283445 Z" id="Fill-15"></path>
                            <path d="M174.210963,10.2990412 C173.964326,9.82907145 173.50048,9.59389283 172.819424,9.59389283 C172.161599,9.59389283 171.709368,9.82907145 171.462732,10.2990412 C171.216096,10.7693985 171.092971,11.5098043 171.092971,12.5202587 L171.092971,13.3664368 L174.58111,13.3664368 L174.58111,12.5202587 C174.58111,11.5098043 174.457599,10.7693985 174.210963,10.2990412 L174.210963,10.2990412 Z M171.092971,19.3249409 C171.092971,20.3594169 171.268753,21.0471303 171.621477,21.3873063 C171.973814,21.7286446 172.372614,21.8987326 172.819424,21.8987326 C173.383163,21.8987326 173.823391,21.6693656 174.140495,21.2110192 C174.457599,20.7526727 174.615957,19.8774363 174.615957,18.5845351 L180.324208,18.5845351 C180.276972,20.9351589 179.677611,22.7042291 178.526901,23.8905831 C177.375803,25.0780996 175.485184,25.6712766 172.854658,25.6712766 C171.327217,25.6712766 170.047575,25.5004137 169.014181,25.1598503 C167.980013,24.8196743 167.146406,24.2551681 166.512586,23.4674941 C165.878379,22.680595 165.425761,21.6519307 165.155894,20.3826635 C164.88564,19.1133964 164.750513,17.5740806 164.750513,15.7639414 C164.750513,13.9305556 164.903063,12.3792291 165.208939,11.1099619 C165.513652,9.84069477 165.995309,8.80660625 166.653134,8.0073089 C167.310572,7.208399 168.150761,6.62645784 169.172539,6.26187287 C170.194317,5.89806278 171.421303,5.71557657 172.854658,5.71557657 C174.122685,5.71557657 175.232741,5.86861702 176.184051,6.17392304 C177.135362,6.4796165 177.933735,6.99065537 178.579945,7.70781455 C179.225767,8.42497373 179.707424,9.36452587 180.024528,10.5280208 C180.341631,11.6915156 180.500377,13.143269 180.500377,14.8825059 L180.500377,16.821664 L171.092971,16.821664 L171.092971,19.3249409 Z" id="Fill-16"></path>
                            <path d="M182.754909,26.9052476 C182.989156,26.9284942 183.224563,26.940505 183.459584,26.940505 C183.85877,26.940505 184.193297,26.8816135 184.463939,26.7642179 C184.733419,26.6464349 184.951016,26.5112168 185.115569,26.3585638 C185.279735,26.2055234 185.397439,26.0470587 185.467906,25.8827824 C185.538374,25.7181186 185.573608,25.5887122 185.573608,25.4949507 C185.573608,25.3539211 185.543794,25.1660106 185.48533,24.930832 C185.426478,24.6960408 185.362205,24.4492389 185.291738,24.1904262 L180.288548,6.20914171 L186.806788,6.20914171 L188.744643,19.0781002 L188.815111,19.0781002 L190.647264,6.20914171 L196.989336,6.20914171 L191.880445,25.8122675 C191.598575,26.9168709 191.275277,27.8273647 190.911324,28.5445239 C190.546984,29.2616831 190.112564,29.8316135 189.607676,30.2547025 C189.102401,30.6777916 188.521238,30.9714743 187.8638,31.136138 C187.205975,31.3004144 186.454451,31.38294 185.608841,31.38294 C184.927398,31.38294 184.298998,31.3709292 183.723643,31.3476826 C183.147901,31.3240485 182.590356,31.288791 182.050235,31.2419103 L182.050235,26.7994753 C182.284868,26.8463561 182.519889,26.8816135 182.754909,26.9052476" id="Fill-17"></path>
                            <path d="M207.534674,21.7912943 C207.901725,22.6611065 208.406612,23.355019 209.04895,23.8714821 C209.691288,24.3887201 210.450943,24.7591168 211.327914,24.9822846 C212.204886,25.2058399 213.143032,25.3170364 214.142741,25.3170364 C214.71345,25.3170364 215.335654,25.2232749 216.008967,25.034977 C216.681892,24.8470666 217.30913,24.5475722 217.890293,24.1361065 C218.471456,23.7250282 218.955823,23.1961669 219.343394,22.5495226 C219.730578,21.9032657 219.924557,21.1214033 219.924557,20.2047104 C219.924557,19.499562 219.787106,18.8885625 219.511819,18.3713245 C219.236144,17.854474 218.87916,17.4193742 218.440868,17.0668 C218.002189,16.7142258 217.517822,16.4267422 216.987767,16.2031869 C216.456938,15.980019 215.93695,15.7975328 215.427417,15.6565032 L210.563226,14.2814638 C209.930955,14.0935533 209.313784,13.8583747 208.712487,13.5763153 C208.110804,13.294256 207.585395,12.9188226 207.137036,12.4480779 C206.687903,11.9781081 206.326274,11.4027535 206.050986,10.7204643 C205.775698,10.03895 205.637861,9.20439519 205.637861,8.21718742 C205.637861,7.60618794 205.73969,6.88980365 205.943736,6.06648476 C206.147395,5.24432821 206.529932,4.46866496 207.090962,3.73949501 C207.651604,3.01109995 208.4221,2.39428881 209.4009,1.88867415 C210.379701,1.38344694 211.634177,1.13044589 213.163553,1.13044589 C214.24457,1.13044589 215.274479,1.29510967 216.253667,1.62404978 C217.232468,1.95337733 218.088918,2.44698122 218.823406,3.10486144 C219.557506,3.7631291 220.143316,4.58024888 220.582382,5.55544589 C221.020674,6.53103034 221.23982,7.6654669 221.23982,8.95759325 L219.159869,8.95759325 C219.11844,7.99401957 218.930269,7.15404058 218.593806,6.4368814 C218.257343,5.72010967 217.818664,5.12073352 217.278542,4.63875296 C216.737647,4.15715984 216.115829,3.79257486 215.412316,3.54577292 C214.708416,3.29897097 213.969282,3.17537628 213.19414,3.17537628 C212.480173,3.17537628 211.79176,3.26371355 211.129289,3.44000066 C210.46643,3.61628776 209.88488,3.89834712 209.385413,4.28617875 C208.885559,4.67401038 208.482887,5.18504925 208.177012,5.81968282 C207.871137,6.45431639 207.718199,7.24199041 207.718199,8.18193 C207.718199,8.76968282 207.804929,9.28110914 207.978387,9.71582151 C208.151458,10.1509213 208.391125,10.521318 208.697,10.8262365 C209.002875,11.13193 209.354825,11.3787319 209.75285,11.5666424 C210.150101,11.7553277 210.573293,11.9075932 211.022039,12.0249888 L216.345429,13.5410579 C217.120184,13.7762365 217.849251,14.064495 218.532631,14.4050584 C219.215623,14.7460093 219.817694,15.1690984 220.337682,15.6743256 C220.85767,16.1799402 221.265374,16.7967514 221.561183,17.5251464 C221.856604,18.2539289 222.004895,19.1357519 222.004895,20.169453 C222.004895,20.4515123 221.978954,20.8277206 221.928233,21.2976904 C221.877125,21.7680477 221.754775,22.2674632 221.561183,22.7963245 C221.367204,23.3247984 221.091916,23.8598588 220.73532,24.4003434 C220.378336,24.9412155 219.888936,25.4290077 219.266731,25.8637201 C218.644527,26.2988199 217.874806,26.6513941 216.95718,26.9214427 C216.039167,27.1914913 214.938016,27.3267094 213.65334,27.3267094 C212.368277,27.3267094 211.174977,27.1558465 210.073826,26.8156705 C208.972288,26.475107 208.034141,25.95167 207.259387,25.2465215 C206.484245,24.5413731 205.887594,23.6370784 205.469823,22.5317002 C205.051277,21.4274842 204.873173,20.0989381 204.934348,18.5476116 L207.014686,18.5476116 C206.994166,19.8405129 207.167624,20.9218696 207.534674,21.7912943" id="Fill-18"></path>
                            <path d="M233.996869,11.1435533 C233.282515,10.3678901 232.283581,9.98005844 230.998518,9.98005844 C230.080892,9.98005844 229.275162,10.2036137 228.582103,10.6499494 C227.88827,11.0966726 227.31214,11.6844254 226.853327,12.4128205 C226.394515,13.141603 226.047598,13.9703461 225.813352,14.8982749 C225.578718,15.827366 225.461402,16.7731173 225.461402,17.736691 C225.461402,18.7006521 225.578718,19.6467908 225.813352,20.575107 C226.047598,21.5038107 226.394515,22.3321664 226.853327,23.0605615 C227.31214,23.789344 227.88827,24.3770968 228.582103,24.8234325 C229.275162,25.2701556 230.080892,25.4933235 230.998518,25.4933235 C231.590134,25.4933235 232.150777,25.364692 232.681218,25.1054919 C233.211273,24.8470666 233.68054,24.4886807 234.088632,24.0303343 C234.496336,23.5719878 234.832799,23.025304 235.09802,22.3906705 C235.362854,21.7560369 235.526245,21.0632867 235.58742,20.3104827 L237.514821,20.3104827 C237.2496,22.5200768 236.546087,24.2418788 235.403895,25.4758885 C234.261703,26.7098982 232.793115,27.3267094 230.998518,27.3267094 C229.79515,27.3267094 228.72962,27.0740957 227.801928,26.5688685 C226.873461,26.0636413 226.093286,25.3759279 225.461402,24.5061157 C224.82913,23.6370784 224.34941,22.6200374 224.023788,21.4565426 C223.697005,20.2930477 223.534388,19.0536137 223.534388,17.736691 C223.534388,16.4205431 223.697005,15.1803343 224.023788,14.0172268 C224.34941,12.8537319 224.82913,11.8370784 225.461402,10.9672662 C226.093286,10.0978415 226.873461,9.40431639 227.801928,8.88707841 C228.72962,8.37022787 229.79515,8.11141516 230.998518,8.11141516 C232.691285,8.11141516 234.123865,8.62865314 235.297032,9.66274166 C236.469425,10.6976051 237.167905,12.2601675 237.392471,14.3519786 L235.46507,14.3519786 C235.199849,12.98895 234.710449,11.9192166 233.996869,11.1435533" id="Fill-19"></path>
                            <path d="M241.491935,1.6593072 L241.491935,11.7781869 L241.55311,11.7781869 C241.92016,10.6735835 242.572952,9.78633635 243.511099,9.11644536 C244.448858,8.44655437 245.478767,8.11141516 246.600825,8.11141516 C247.702363,8.11141516 248.624635,8.27607893 249.369577,8.60501904 C250.113744,8.9343466 250.710395,9.39850473 251.159141,9.99749343 C251.6075,10.597257 251.923829,11.3318512 252.107354,12.2012759 C252.291266,13.0710881 252.382642,14.0466726 252.382642,15.1276418 L252.382642,26.8331055 L250.45524,26.8331055 L250.45524,15.480216 C250.45524,14.7045528 250.394453,13.9819694 250.272103,13.3120784 C250.149365,12.6421874 249.93564,12.0602463 249.629377,11.5666424 C249.323502,11.0730385 248.910764,10.6852069 248.390389,10.4031475 C247.870401,10.1210881 247.222643,9.98005844 246.447888,9.98005844 C245.672359,9.98005844 244.984333,10.1389106 244.383037,10.4562273 C243.780966,10.7731567 243.271045,11.2086439 242.853273,11.7607519 C242.435115,12.3132473 242.108332,12.971515 241.874472,13.73478 C241.639452,14.4992074 241.512068,15.327563 241.491935,16.2206219 L241.491935,26.8331055 L239.564534,26.8331055 L239.564534,1.6593072 L241.491935,1.6593072 Z" id="Fill-20"></path>
                            <path d="M259.663479,10.6499882 C258.969645,11.0967113 258.393903,11.6844641 257.93509,12.4128592 C257.476277,13.1416417 257.128973,13.9703848 256.894727,14.8983136 C256.660094,15.8274048 256.542777,16.773156 256.542777,17.7367297 C256.542777,18.7006908 256.660094,19.6468295 256.894727,20.5751458 C257.128973,21.5038495 257.476277,22.3322051 257.93509,23.0606002 C258.393903,23.7893827 258.969645,24.3771355 259.663479,24.8234712 C260.356538,25.2701944 261.162654,25.4933622 262.08028,25.4933622 C262.997906,25.4933622 263.803248,25.2701944 264.497081,24.8234712 C265.190141,24.3771355 265.766657,23.7893827 266.22547,23.0606002 C266.684283,22.3322051 267.030812,21.5038495 267.265833,20.5751458 C267.499692,19.6468295 267.617396,18.7006908 267.617396,17.7367297 C267.617396,16.773156 267.499692,15.8274048 267.265833,14.8983136 C267.030812,13.9703848 266.684283,13.1416417 266.22547,12.4128592 C265.766657,11.6844641 265.190141,11.0967113 264.497081,10.6499882 C263.803248,10.2036525 262.997906,9.98009719 262.08028,9.98009719 C261.162654,9.98009719 260.356538,10.2036525 259.663479,10.6499882 M265.277257,8.88711715 C266.204949,9.40435514 266.985125,10.0978802 267.617396,10.967305 C268.24928,11.8371172 268.729001,12.8533832 269.055397,14.0168781 C269.381405,15.180373 269.544797,16.4205818 269.544797,17.7367297 C269.544797,19.053265 269.381405,20.2930864 269.055397,21.4565813 C268.729001,22.6200762 268.24928,23.6371172 267.617396,24.5061545 C266.985125,25.3759666 266.204949,26.0636801 265.277257,26.5685198 C264.34879,27.0741345 263.28326,27.3267481 262.08028,27.3267481 C260.876525,27.3267481 259.810996,27.0741345 258.883303,26.5685198 C257.954836,26.0636801 257.175048,25.3759666 256.542777,24.5061545 C255.910506,23.6371172 255.431172,22.6200762 255.105163,21.4565813 C254.778767,20.2930864 254.615763,19.053265 254.615763,17.7367297 C254.615763,16.4205818 254.778767,15.180373 255.105163,14.0168781 C255.431172,12.8533832 255.910506,11.8371172 256.542777,10.967305 C257.175048,10.0978802 257.954836,9.40435514 258.883303,8.88711715 C259.810996,8.37026661 260.876525,8.1114539 262.08028,8.1114539 C263.28326,8.1114539 264.34879,8.37026661 265.277257,8.88711715" id="Fill-21"></path>
                            <path d="M276.060946,10.6499882 C275.367113,11.0967113 274.79137,11.6844641 274.332557,12.4128592 C273.873745,13.1416417 273.526441,13.9703848 273.292194,14.8983136 C273.057561,15.8274048 272.940244,16.773156 272.940244,17.7367297 C272.940244,18.7006908 273.057561,19.6468295 273.292194,20.5751458 C273.526441,21.5038495 273.873745,22.3322051 274.332557,23.0606002 C274.79137,23.7893827 275.367113,24.3771355 276.060946,24.8234712 C276.754005,25.2701944 277.560122,25.4933622 278.477747,25.4933622 C279.395373,25.4933622 280.200715,25.2701944 280.894549,24.8234712 C281.587608,24.3771355 282.164125,23.7893827 282.622937,23.0606002 C283.08175,22.3322051 283.42828,21.5038495 283.6633,20.5751458 C283.897159,19.6468295 284.014863,18.7006908 284.014863,17.7367297 C284.014863,16.773156 283.897159,15.8274048 283.6633,14.8983136 C283.42828,13.9703848 283.08175,13.1416417 282.622937,12.4128592 C282.164125,11.6844641 281.587608,11.0967113 280.894549,10.6499882 C280.200715,10.2036525 279.395373,9.98009719 278.477747,9.98009719 C277.560122,9.98009719 276.754005,10.2036525 276.060946,10.6499882 M281.674724,8.88711715 C282.602417,9.40435514 283.382592,10.0978802 284.014863,10.967305 C284.646747,11.8371172 285.126468,12.8533832 285.452864,14.0168781 C285.778873,15.180373 285.942264,16.4205818 285.942264,17.7367297 C285.942264,19.053265 285.778873,20.2930864 285.452864,21.4565813 C285.126468,22.6200762 284.646747,23.6371172 284.014863,24.5061545 C283.382592,25.3759666 282.602417,26.0636801 281.674724,26.5685198 C280.746257,27.0741345 279.680728,27.3267481 278.477747,27.3267481 C277.273993,27.3267481 276.208463,27.0741345 275.280771,26.5685198 C274.352304,26.0636801 273.572516,25.3759666 272.940244,24.5061545 C272.307973,23.6371172 271.82864,22.6200762 271.502631,21.4565813 C271.176235,20.2930864 271.01323,19.053265 271.01323,17.7367297 C271.01323,16.4205818 271.176235,15.180373 271.502631,14.0168781 C271.82864,12.8533832 272.307973,11.8371172 272.940244,10.967305 C273.572516,10.0978802 274.352304,9.40435514 275.280771,8.88711715 C276.208463,8.37026661 277.273993,8.1114539 278.477747,8.1114539 C279.680728,8.1114539 280.746257,8.37026661 281.674724,8.88711715" id="Fill-22"></path>
                            <path d="M290.163691,26.8332217 L288.23629,26.8332217 L288.23629,1.65942343 L290.163691,1.65942343 L290.163691,26.8332217 Z" id="Fill-23"></path>
                            <path d="M308.029863,24.7882913 C309.60028,24.7882913 310.951552,24.5945692 312.08329,24.2067376 C313.215416,23.818906 314.148529,23.2017074 314.882629,22.3555293 C315.61673,21.5093512 316.156851,20.4163712 316.504155,19.0765892 C316.850685,17.7368072 317.024143,16.1269766 317.024143,14.2463226 C317.024143,12.3660559 316.850685,10.7558379 316.504155,9.41605595 C316.156851,8.07627397 315.61673,6.98329393 314.882629,6.13711584 C314.148529,5.29093775 313.215416,4.67373916 312.08329,4.28590754 C310.951552,3.89846336 309.60028,3.70435382 308.029863,3.70435382 L303.593898,3.70435382 L303.593898,24.7882913 L308.029863,24.7882913 Z M309.070226,1.65942343 C312.393812,1.75357237 314.897729,2.82872997 316.58043,4.88528369 C318.263131,6.94222485 319.104482,10.0627003 319.104482,14.2463226 C319.104482,18.4303323 318.263131,21.5508077 316.58043,23.606974 C314.897729,25.6643026 312.393812,26.7394602 309.070226,26.8332217 L301.513559,26.8332217 L301.513559,1.65942343 L309.070226,1.65942343 Z" id="Fill-24"></path>
                            <path d="M323.448336,26.8332217 L321.520935,26.8332217 L321.520935,8.6403927 L323.448336,8.6403927 L323.448336,26.8332217 Z M323.448336,5.22042291 L321.520935,5.22042291 L321.520935,1.65942343 L323.448336,1.65942343 L323.448336,5.22042291 Z" id="Fill-25"></path>
                            <path d="M335.623718,12.183686 C335.399152,11.6784588 335.099084,11.2615688 334.72158,10.9322413 C334.344076,10.6033012 333.910817,10.3623109 333.421804,10.2092704 C332.932404,10.0566174 332.412029,9.98029091 331.861453,9.98029091 C331.432841,9.98029091 330.999582,10.0329833 330.560903,10.1387556 C330.122223,10.2445278 329.719939,10.4208149 329.352502,10.6676169 C328.985452,10.9144188 328.689643,11.2379347 328.465464,11.6370022 C328.240897,12.0372321 328.129001,12.530836 328.129001,13.1182013 C328.129001,13.6118052 328.235864,14.0290826 328.450364,14.369646 C328.664089,14.7105969 328.934343,14.9988554 329.260739,15.2336466 C329.586748,15.4688252 329.943732,15.6625473 330.33169,15.8152003 C330.718874,15.9686282 331.075857,16.0918354 331.40264,16.1855969 L333.971992,16.8554879 C334.522568,16.9496369 335.067723,17.1197248 335.608618,17.3665268 C336.149127,17.6133287 336.628848,17.9368446 337.047006,18.3359121 C337.46439,18.736142 337.806274,19.2297459 338.071495,19.8171112 C338.336328,20.4048641 338.46952,21.0983892 338.46952,21.8969116 C338.46952,22.8845068 338.275153,23.7248733 337.88797,24.4180109 C337.500011,25.111536 337.00519,25.6756547 336.404281,26.1103671 C335.80221,26.5454669 335.123864,26.8561971 334.370017,27.044495 C333.615396,27.2324054 332.871229,27.3265544 332.136741,27.3265544 C330.280194,27.3265544 328.775985,26.8217146 327.624113,25.8104853 C326.471854,24.8004183 325.814029,23.178577 325.651025,20.9453487 L327.578426,20.9453487 C327.659734,22.4497945 328.133647,23.5838436 329.000939,24.3474961 C329.867457,25.111536 330.94344,25.4935559 332.228116,25.4935559 C332.696996,25.4935559 333.180976,25.4350519 333.681604,25.3168814 C334.180684,25.1998733 334.645305,24.9999521 335.073143,24.7178927 C335.502143,24.4358333 335.853706,24.0774475 336.128993,23.6423476 C336.404281,23.2076353 336.541731,22.6729623 336.541731,22.0383287 C336.541731,21.4978441 336.444935,21.0456967 336.251343,20.6807243 C336.056977,20.3165268 335.79679,20.0108333 335.470781,19.7640314 C335.145159,19.5172294 334.772301,19.3114966 334.354917,19.1472203 C333.936759,18.9829439 333.513179,18.8419142 333.084954,18.7237438 L330.606978,18.0894976 C329.974706,17.9015872 329.393156,17.6838436 328.863102,17.4370416 C328.33266,17.1902397 327.868814,16.8849337 327.471176,16.5203487 C327.073538,16.1561512 326.762242,15.709428 326.538063,15.1805667 C326.313496,14.6517054 326.2016,13.9996369 326.2016,13.2239736 C326.2016,12.3068932 326.379705,11.5199941 326.737075,10.861339 C327.093672,10.2038462 327.557518,9.6749849 328.129001,9.2751425 C328.69971,8.87568755 329.337402,8.58200486 330.041302,8.39370699 C330.744428,8.20579656 331.443295,8.11164762 332.136741,8.11164762 C332.932404,8.11164762 333.67115,8.22943065 334.354917,8.46383438 C335.037522,8.69940045 335.639593,9.06359798 336.159194,9.55720186 C336.679569,10.0508058 337.092307,10.6621927 337.398569,11.3905877 C337.704057,12.1189828 337.877128,12.9767842 337.918944,13.9643794 L335.991156,13.9643794 C335.970635,13.2828651 335.848285,12.6893006 335.623718,12.183686" id="Fill-26"></path>
                            <path d="M346.912179,8.64031521 L346.912179,10.5089585 L343.699715,10.5089585 L343.699715,22.7785408 C343.699715,23.5073234 343.786444,24.0776412 343.959902,24.4887195 C344.132974,24.9001852 344.566232,25.1291647 345.260066,25.1760454 C345.810641,25.1760454 346.361604,25.140788 346.912179,25.0702732 L346.912179,26.9389165 C346.626437,26.9389165 346.340696,26.9505398 346.055341,26.9741739 C345.7696,26.9974205 345.484245,27.0094313 345.198891,27.0094313 C343.914215,27.0094313 343.016335,26.7219477 342.506802,26.1458182 C341.99688,25.5700762 341.75218,24.5061545 341.772701,22.9548279 L341.772701,10.5089585 L339.01905,10.5089585 L339.01905,8.64031521 L341.772701,8.64031521 L341.772701,3.17541502 L343.699715,3.17541502 L343.699715,8.64031521 L346.912179,8.64031521 Z" id="Fill-27"></path>
                            <path d="M350.858512,8.64031521 L350.858512,12.9064631 L350.919687,12.9064631 C351.409474,11.4256514 352.168742,10.2857906 353.199038,9.4864933 C354.22856,8.68797084 355.457481,8.32299842 356.885028,8.39351327 L356.885028,10.6147308 C356.008444,10.56785 355.212781,10.703068 354.498814,11.0203848 C353.785234,11.3373142 353.16845,11.7902364 352.648075,12.3776018 C352.128087,12.9653546 351.725029,13.6646914 351.440062,14.475612 C351.15432,15.2861453 351.011836,16.1737799 351.011836,17.1373536 L351.011836,26.8331442 L349.084435,26.8331442 L349.084435,8.64031521 L350.858512,8.64031521 Z" id="Fill-28"></path>
                            <path d="M360.066633,26.8332217 L358.138845,26.8332217 L358.138845,8.6403927 L360.066633,8.6403927 L360.066633,26.8332217 Z M360.066633,5.22042291 L358.138845,5.22042291 L358.138845,1.65942343 L360.066633,1.65942343 L360.066633,5.22042291 Z" id="Fill-29"></path>
                            <path d="M372.823256,11.1435533 C372.108902,10.3678901 371.109968,9.98005844 369.825292,9.98005844 C368.907279,9.98005844 368.10155,10.2036137 367.408491,10.6499494 C366.715044,11.0966726 366.138528,11.6844254 365.680102,12.4128205 C365.220902,13.141603 364.873985,13.9703461 364.639739,14.8982749 C364.405106,15.827366 364.287789,16.7731173 364.287789,17.736691 C364.287789,18.7006521 364.405106,19.6467908 364.639739,20.575107 C364.873985,21.5038107 365.220902,22.3321664 365.680102,23.0605615 C366.138528,23.789344 366.715044,24.3770968 367.408491,24.8234325 C368.10155,25.2701556 368.907279,25.4933235 369.825292,25.4933235 C370.416522,25.4933235 370.976777,25.364692 371.507993,25.1054919 C372.038048,24.8470666 372.506927,24.4886807 372.914632,24.0303343 C373.322724,23.5719878 373.659186,23.025304 373.924407,22.3906705 C374.189241,21.7560369 374.352633,21.0632867 374.413808,20.3104827 L376.341209,20.3104827 C376.075988,22.5200768 375.372475,24.2418788 374.23067,25.4758885 C373.08809,26.7098982 371.619889,27.3267094 369.825292,27.3267094 C368.62115,27.3267094 367.556008,27.0740957 366.628315,26.5688685 C365.700236,26.0636413 364.919673,25.3759279 364.287789,24.5061157 C363.655518,23.6370784 363.176184,22.6200374 362.849788,21.4565426 C362.523392,20.2930477 362.360775,19.0536137 362.360775,17.736691 C362.360775,16.4205431 362.523392,15.1803343 362.849788,14.0172268 C363.176184,12.8537319 363.655518,11.8370784 364.287789,10.9672662 C364.919673,10.0978415 365.700236,9.40431639 366.628315,8.88707841 C367.556008,8.37022787 368.62115,8.11141516 369.825292,8.11141516 C371.517673,8.11141516 372.950253,8.62865314 374.123033,9.66274166 C375.295812,10.6976051 375.993905,12.2601675 376.219246,14.3519786 L374.291458,14.3519786 C374.026237,12.98895 373.536836,11.9192166 372.823256,11.1435533" id="Fill-30"></path>
                            <path d="M384.693229,8.64031521 L384.693229,10.5089585 L381.480764,10.5089585 L381.480764,22.7785408 C381.480764,23.5073234 381.567493,24.0776412 381.740952,24.4887195 C381.914023,24.9001852 382.347282,25.1291647 383.041115,25.1760454 C383.591691,25.1760454 384.142653,25.140788 384.693229,25.0702732 L384.693229,26.9389165 C384.407487,26.9389165 384.121745,26.9505398 383.836391,26.9741739 C383.550649,26.9974205 383.265295,27.0094313 382.97994,27.0094313 C381.695264,27.0094313 380.797385,26.7219477 380.287851,26.1458182 C379.77793,25.5700762 379.53323,24.5061545 379.55375,22.9548279 L379.55375,10.5089585 L376.800099,10.5089585 L376.800099,8.64031521 L379.55375,8.64031521 L379.55375,3.17541502 L381.480764,3.17541502 L381.480764,8.64031521 L384.693229,8.64031521 Z" id="Fill-31"></path>
                        </g>
                    </g>
                </g>
            </g>
        </g>
    </g>
</svg>