<?xml version="1.0" encoding="UTF-8" standalone="no"?>
<svg width="46px" height="39px" viewBox="0 0 46 39" version="1.1" xmlns="http://www.w3.org/2000/svg" xmlns:xlink="http://www.w3.org/1999/xlink" xmlns:sketch="http://www.bohemiancoding.com/sketch/ns">
    <!-- Generator: sketchtool 3.5.2 (25235) - http://www.bohemiancoding.com/sketch -->
    <title>Explore Icon</title>
    <desc>Created with sketchtool.</desc>
    <defs></defs>
    <g id="Homepage" stroke="none" stroke-width="1" fill="none" fill-rule="evenodd" sketch:type="MSPage">
        <g id="Desktop-Retina---Simplified" sketch:type="MSArtboardGroup" transform="translate(-1344.000000, -2255.000000)" fill="#44A7F0">
            <g id="Columns" sketch:type="MSLayerGroup" transform="translate(374.000000, 2255.000000)">
                <g id="Column-3" transform="translate(861.000000, 0.000000)" sketch:type="MSShapeGroup">
                    <g id="Explore-Icon" transform="translate(109.000000, 0.000000)">
                        <path d="M22.6858395,20.949187 C23.2187872,20.9489279 23.6440314,20.5373658 23.6545881,20.0116754 C23.665339,19.4733543 23.233424,19.0377618 22.6873939,19.0362721 C22.1475811,19.0347823 21.7020656,19.4806736 21.7146947,20.009797 C21.727259,20.5331557 22.1576196,20.949446 22.6858395,20.949187 L22.6858395,20.949187 Z M23.6426066,17.1617671 C23.6405341,17.1739442 23.6545233,17.1299639 23.6545233,17.0859837 C23.6556243,13.1075508 23.6586035,9.12911795 23.6523861,5.15074986 C23.6515441,4.58833358 23.2491618,4.19017939 22.7167322,4.17120116 C22.2042501,4.15287065 21.7976581,4.51267975 21.7236322,5.05650643 C21.7079592,5.17141216 21.7083478,5.2891031 21.708283,5.40549859 C21.7075706,9.22057618 21.7077001,13.0356538 21.7077001,16.8507314 L21.7077001,17.1617671 L23.6426066,17.1617671 Z M28.9863318,8.78841662 L25.6067867,8.78841662 L25.6067867,19.0143143 L28.9863318,19.0143143 L28.9863318,8.78841662 Z M19.7697497,8.78647346 L16.3874844,8.78647346 L16.3874844,19.0158689 L19.7697497,19.0158689 L19.7697497,8.78647346 Z M9.38746995,36.0258684 C13.1548901,36.016865 16.2094466,32.9455009 16.1997967,29.1759581 C16.1902115,25.4012335 13.1184277,22.3875165 9.28980496,22.3966494 C5.59666975,22.4053937 2.56957344,25.480126 2.57248784,29.2195497 C2.57546701,32.9687541 5.64543747,36.0348717 9.38746995,36.0258684 L9.38746995,36.0258684 Z M35.9768259,36.0258684 C39.7648413,36.0162821 42.7866916,32.9560587 42.7796323,29.1366414 C42.7727673,25.3886677 39.6987166,22.3879052 35.875016,22.3966494 C32.1894583,22.405005 29.1360028,25.5050632 29.1522587,29.2220111 C29.1687089,32.979571 32.2337572,36.0353899 35.9768259,36.0258684 L35.9768259,36.0258684 Z M41.3438664,21.4512356 C41.337649,21.4110769 41.3311078,21.3549195 41.3199035,21.2996041 C40.8379255,18.9132051 40.355559,16.526806 39.8730629,14.140407 C39.3537157,11.5717392 38.8242653,9.00507935 38.3178063,6.43382069 C37.8798035,4.20980534 36.083558,2.67988798 33.8142072,2.63130889 C31.7041125,2.58616272 29.8002283,4.0912076 29.3005696,6.20595239 C29.2540686,6.40285962 29.244613,6.60851108 29.2122307,6.85315536 C29.4074959,6.85315536 29.5459625,6.84337477 29.6824863,6.85535762 C29.92354,6.87647333 30.1849298,6.85982689 30.3993654,6.95024876 C30.8417074,7.13685723 30.9522606,7.53468756 30.9511596,7.98867532 C30.945525,10.2985785 30.9486337,12.6084817 30.9486337,14.9184496 C30.9486337,16.5634023 30.9527139,18.2083549 30.9464317,19.8533075 C30.9436469,20.580245 30.57002,20.9413495 29.8418071,20.9491222 C29.6366329,20.9513244 29.431394,20.949446 29.2216215,20.949446 L29.2216215,22.6137008 C32.9943524,19.2987935 37.0234215,18.9178686 41.3438664,21.4512356 L41.3438664,21.4512356 Z M16.133154,20.9495108 C15.9540799,20.9495108 15.7939171,20.9498994 15.6337543,20.949446 C14.7639013,20.9469199 14.4268017,20.6110765 14.4267369,19.746304 C14.4266074,16.4915052 14.4266721,13.2367064 14.4266721,9.98190762 C14.4266721,9.28191537 14.423693,8.58192312 14.4275788,7.88199564 C14.4312056,7.23861422 14.8089127,6.85976212 15.4452894,6.853544 C15.6622507,6.85140652 15.8792768,6.85322014 16.1319234,6.85322014 C16.1115226,6.63992556 16.108932,6.47812482 16.0791403,6.32144107 C15.5175019,3.36621331 12.1282421,1.73168898 9.46700085,3.14113021 C7.9996946,3.91833082 7.269474,5.16966332 6.95996408,6.79447183 C6.16452555,10.9702653 5.28353302,15.129801 4.43693047,19.2958139 C4.29036824,20.017181 4.1447127,20.7386776 4.00048199,21.4509765 C8.34424215,18.9183221 12.3716921,19.3024207 16.133154,22.6173928 L16.133154,20.9495108 Z M18.7202397,20.9495756 C18.7202397,21.1462237 18.7196568,21.3053688 18.7203045,21.4644491 C18.7320916,24.1471158 18.8421914,26.8337336 18.7328688,29.5114776 C18.5711517,33.4717095 16.5808067,36.3297791 12.9469311,37.8644249 C7.45534833,40.18372 1.31547217,36.8204927 0.15897113,30.9693684 C-0.11712026,29.5726225 -0.005660424,28.1901265 0.279303713,26.8044566 C1.26722256,22.0009566 2.23875598,17.1940236 3.21313903,12.3877383 C3.67141318,10.1273858 4.08681317,7.8577061 4.58446418,5.6061626 C5.30380433,2.3516229 8.21400058,0.0759841685 11.587976,0.0620581637 C14.8587814,0.0485207916 17.7700139,2.3413889 18.5375389,5.54696089 C18.6343619,5.9513332 18.6784018,6.36833608 18.7511972,6.80554786 L19.7940364,6.80554786 C19.7940364,6.56096835 19.78892,6.32195925 19.7951374,6.08333877 C19.8080256,5.58277987 19.7640504,5.07062675 19.8550446,4.58412339 C20.1351514,3.08575005 21.4836794,2.10542408 22.992435,2.24844092 C24.4381747,2.38549871 25.554975,3.6212859 25.5801684,5.12088991 C25.589365,5.66814951 25.581658,6.21573298 25.581658,6.79635022 L26.5763124,6.79635022 C26.6961269,6.23088965 26.7776655,5.65532464 26.9415846,5.10430825 C27.8797643,1.95139599 30.8818615,-0.0924881034 34.2943718,0.0761784848 C37.4066983,0.230077031 40.1849043,2.67023693 40.8124083,5.78033482 C42.2683807,12.9967257 43.7291458,20.2122098 45.1943795,27.4267223 C46.1824279,32.2920798 42.9507403,37.2632101 38.0791489,38.3559157 C32.7286881,39.5560134 27.5399445,36.0375274 26.6946373,30.6172672 C26.600081,30.011065 26.6008582,29.3859493 26.6009877,28.7696426 C26.6013115,26.4133626 26.6196399,24.0571474 26.6309089,21.7009321 C26.6320099,21.4689184 26.6310385,21.2369695 26.6310385,20.9522312 C26.265831,20.9522312 25.8964786,20.9359734 25.5306883,20.9648618 C25.449344,20.9712742 25.3600337,21.1265978 25.3089344,21.2303627 C24.4293019,23.016389 22.1544462,23.4581996 20.7142115,22.0981795 C20.4415526,21.8407103 20.2720637,21.4764967 20.0359969,21.1764075 C19.9576317,21.076788 19.8248643,20.970497 19.7084176,20.9598096 C19.3871853,20.9302735 19.0614843,20.9495756 18.7202397,20.9495756 L18.7202397,20.9495756 Z" id="Fill-1"></path>
                    </g>
                </g>
            </g>
        </g>
    </g>
</svg>