<?xml version="1.0" encoding="UTF-8" standalone="no"?>
<svg width="241px" height="56px" viewBox="0 0 241 56" version="1.1" xmlns="http://www.w3.org/2000/svg" xmlns:xlink="http://www.w3.org/1999/xlink" xmlns:sketch="http://www.bohemiancoding.com/sketch/ns">
    <!-- Generator: sketchtool 3.5.2 (25235) - http://www.bohemiancoding.com/sketch -->
    <title>Logo 2</title>
    <desc>Created with sketchtool.</desc>
    <defs>
        <linearGradient x1="57.1743152%" y1="0%" x2="57.1743131%" y2="100%" id="linearGradient-1">
            <stop stop-color="#19A69B" offset="0%"></stop>
            <stop stop-color="#10887C" offset="100%"></stop>
        </linearGradient>
        <linearGradient x1="94.3614006%" y1="13.7154081%" x2="7.38710106%" y2="86.5145781%" id="linearGradient-2">
            <stop stop-color="#44A7F0" offset="0%"></stop>
            <stop stop-color="#2F8CEC" offset="100%"></stop>
        </linearGradient>
        <linearGradient x1="7.3832108%" y1="12.8236372%" x2="94.0231838%" y2="84.8209184%" id="linearGradient-3">
            <stop stop-color="#FB8E31" offset="0%"></stop>
            <stop stop-color="#FB7725" offset="71.0176163%"></stop>
            <stop stop-color="#FA6D21" offset="100%"></stop>
        </linearGradient>
    </defs>
    <g id="Homepage" stroke="none" stroke-width="1" fill="none" fill-rule="evenodd" sketch:type="MSPage">
        <g id="Desktop-Retina" sketch:type="MSArtboardGroup" transform="translate(-839.000000, -4757.000000)">
            <g id="Footer" sketch:type="MSLayerGroup" transform="translate(0.000000, 4689.000000)">
                <g id="Logo-2" transform="translate(839.000000, 68.000000)" sketch:type="MSShapeGroup">
                    <g id="Logo-Mark">
                        <path d="M17.8766302,0.513531915 C17.1182782,0.513531915 16.5063584,1.12714894 16.5063584,1.88374468 L16.5063584,1.88374468 L16.5063584,45.5601702 C16.5063584,46.3179574 17.1182782,46.9315745 17.8766302,46.9315745 L17.8766302,46.9315745 L26.9518534,46.9315745 C27.7090149,46.9315745 28.3221252,46.3179574 28.3221252,45.5601702 L28.3221252,45.5601702 L28.3221252,1.88374468 C28.3221252,1.12714894 27.7090149,0.513531915 26.9518534,0.513531915 L26.9518534,0.513531915 L17.8766302,0.513531915 Z" id="teal" fill="url(#linearGradient-1)"></path>
                        <path d="M38.0806986,7.41344681 L0.665492559,29.8920851 C0.0166670766,30.2817021 -0.194052392,31.1252766 0.196433403,31.7734468 L0.196433403,31.7734468 L4.86678637,39.5622128 C5.25608166,40.210383 6.09776903,40.4224681 6.74659451,40.0316596 L6.74659451,40.0316596 L44.1618005,17.5518298 C44.8118165,17.1634043 45.0213455,16.3198298 44.6320502,15.6716596 L44.6320502,15.6716596 L39.9605067,7.88289362 C39.7033575,7.45514894 39.2497749,7.21685106 38.7842873,7.21685106 L38.7842873,7.21685106 C38.5449957,7.21685106 38.3009421,7.28 38.0806986,7.41344681" id="blue" fill="url(#linearGradient-2)"></path>
                        <path d="M4.86678637,7.88289362 L0.196433403,15.6716596 C-0.194052392,16.3198298 0.0166670766,17.1634043 0.665492559,17.5518298 L0.665492559,17.5518298 L38.0806986,40.0316596 C38.729524,40.4224681 39.5712114,40.210383 39.9605067,39.5622128 L39.9605067,39.5622128 L44.6320502,31.7734468 C45.0213455,31.1252766 44.8118165,30.2817021 44.1618005,29.8920851 L44.1618005,29.8920851 L6.74659451,7.41344681 C6.526351,7.28 6.28348789,7.21685106 6.04300578,7.21685106 L6.04300578,7.21685106 C5.57751814,7.21685106 5.12393556,7.45514894 4.86678637,7.88289362" id="orange" fill="url(#linearGradient-3)"></path>
                    </g>
                    <g id="Logo-Type" transform="translate(64.096790, 0.000000)" fill="#58595B">
                        <path d="M175.955305,13.943166 L172.314739,13.943166 C171.942111,13.943166 171.61115,14.1802723 171.489719,14.5329532 L163.958581,36.4849532 C163.53238,34.9741447 157.348895,17.8881872 156.128627,14.5186553 C156.003624,14.1731234 155.675044,13.943166 155.308368,13.943166 L151.522561,13.943166 C150.903498,13.943166 150.480869,14.5698894 150.713017,15.1441872 C152.877356,20.4987404 161.547808,41.9503149 161.785909,42.5067404 L157.340561,54.8303149 C157.135794,55.3998468 157.557233,56.0003574 158.16201,56.0003574 L161.138274,56.0003574 C161.503759,56.0003574 161.831148,55.7715915 161.957342,55.4284426 L176.774373,15.1179745 C176.983902,14.5484426 176.562463,13.943166 175.955305,13.943166" id="Fill-22"></path>
                        <path d="M145.247288,35.5669106 L145.247288,1.40571915 C145.247288,0.923165957 144.856802,0.531165957 144.374647,0.531165957 L140.901943,0.531165957 C140.419788,0.531165957 140.029302,0.923165957 140.029302,1.40571915 L140.029302,36.2079319 C140.029302,39.7740596 142.918659,42.6646128 146.481842,42.6646128 L149.354532,42.6646128 C149.836686,42.6646128 150.227172,42.2738043 150.227172,41.7912511 L150.227172,39.4130383 C150.227172,38.9304851 149.836686,38.5396766 149.354532,38.5396766 L148.217599,38.5396766 C146.577082,38.5396766 145.247288,37.208783 145.247288,35.5669106" id="Fill-20"></path>
                        <path d="M120.997167,22.9038809 C120.997167,19.9060936 120.950738,17.2800511 120.816211,14.8625191 C120.788829,14.3632851 121.187648,13.9426894 121.687661,13.9426894 L124.479396,13.9426894 C124.950836,13.9426894 125.33775,14.3180085 125.352036,14.7886468 L125.503231,19.580817 L125.740141,19.580817 C127.044935,15.723966 130.18787,13.2897532 133.685575,13.2897532 C134.108204,13.2897532 135.497524,13.3207319 136.434452,13.3803064 C136.893987,13.4100936 137.25352,13.7913702 137.25352,14.2524766 L137.25352,17.4313702 C137.25352,17.9341787 136.832081,18.3333277 136.330878,18.3035404 C135.332044,18.2451574 133.890342,18.2153702 133.389139,18.2153702 C129.712858,18.2153702 127.10446,21.0046468 126.392538,24.9210723 C126.274678,25.633583 126.155628,26.4640511 126.155628,27.3540936 L126.155628,41.7913702 C126.155628,42.2739234 125.765142,42.6647319 125.282987,42.6647319 L121.869808,42.6647319 C121.387653,42.6647319 120.997167,42.2739234 120.997167,41.7913702 L120.997167,22.9038809 Z" id="Fill-14"></path>
                        <path d="M95.97429,29.2539234 C96.0933405,36.3158809 100.599404,39.2231149 105.817389,39.2231149 C108.984134,39.2231149 111.085376,38.7536681 112.843753,38.1054979 C113.335431,37.9232 113.87473,38.2115404 113.996162,38.7214979 L114.480698,40.7577532 C114.5807,41.1807319 114.358076,41.6132426 113.954494,41.7729021 C112.0604,42.517583 109.137709,43.2586894 105.105467,43.2586894 C96.2707259,43.2586894 90.9932151,37.4430298 90.9932151,28.7785191 C90.9932151,20.1152 96.0933405,13.2903489 104.45307,13.2903489 C113.822348,13.2903489 116.311695,21.5390298 116.311695,26.8209021 C116.311695,27.4595404 116.270027,28.013583 116.223598,28.4699234 C116.177168,28.9155404 115.802159,29.2539234 115.354529,29.2539234 L95.97429,29.2539234 Z M111.272285,25.5150298 C111.331811,22.191966 109.907966,17.0292426 104.038774,17.0292426 C98.7612633,17.0292426 96.4493017,21.8952851 96.0338153,25.5150298 L111.272285,25.5150298 Z" id="Fill-18"></path>
                        <path d="M85.9114234,0.531404255 C86.3935782,0.531404255 86.784064,0.922212766 86.784064,1.40476596 L86.784064,35.2466383 C86.784064,37.4211064 86.8269221,39.8529362 86.9495442,41.7366809 C86.9828784,42.2394894 86.5828685,42.6648511 86.0780942,42.6648511 L83.1696893,42.6648511 C82.7030112,42.6648511 82.3196684,42.2990638 82.2970488,41.8331915 L82.0994249,37.6808511 L81.9815649,37.6808511 C80.380335,40.884766 76.8814394,43.3177872 72.1979909,43.3177872 C65.259725,43.3177872 59.9238795,37.4425532 59.9238795,28.7196596 C59.8643542,19.1651064 65.794262,13.2898723 72.7908626,13.2898723 C77.1778753,13.2898723 80.1434244,15.3678298 81.4470279,17.6817021 L81.5660785,17.6817021 L81.5660785,1.40476596 C81.5660785,0.922212766 81.9565643,0.531404255 82.438719,0.531404255 L85.9114234,0.531404255 Z M81.5660785,25.6337021 C81.5660785,24.980766 81.5065532,24.0907234 81.3291679,23.4377872 C80.5577203,20.1147234 77.7124122,17.3850213 73.7980303,17.3850213 C68.4026595,17.3850213 65.2013902,22.1319149 65.2013902,28.4825532 C65.2013902,34.2982128 68.0466983,39.1046809 73.6801702,39.1046809 C77.1778753,39.1046809 80.380335,36.789617 81.3291679,32.8731915 C81.5065532,32.1618723 81.5660785,31.4493617 81.5660785,30.6188936 L81.5660785,25.6337021 Z" id="Fill-16"></path>
                        <path d="M43.2027539,22.9038809 C43.2027539,19.9060936 43.1563242,17.2800511 43.0217971,14.8625191 C42.9944154,14.3632851 43.3932348,13.9426894 43.8932471,13.9426894 L46.6849824,13.9426894 C47.1564226,13.9426894 47.5433369,14.3180085 47.5576229,14.7886468 L47.7088171,19.580817 L47.9457277,19.580817 C49.2505217,15.723966 52.3934562,13.2897532 55.8911612,13.2897532 C56.3137907,13.2897532 57.7031106,13.3207319 58.6400384,13.3803064 C59.0995735,13.4100936 59.4591061,13.7913702 59.4591061,14.2524766 L59.4591061,17.4313702 C59.4591061,17.9341787 59.0376672,18.3333277 58.5364644,18.3035404 C57.5376303,18.2451574 56.0959282,18.2153702 55.5947254,18.2153702 C51.9184445,18.2153702 49.310047,21.0046468 48.5981247,24.9210723 C48.4802647,25.633583 48.3612141,26.4640511 48.3612141,27.3540936 L48.3612141,41.7913702 C48.3612141,42.2739234 47.9707283,42.6647319 47.4885736,42.6647319 L44.0753944,42.6647319 C43.5932397,42.6647319 43.2027539,42.2739234 43.2027539,41.7913702 L43.2027539,22.9038809 Z" id="Fill-12"></path>
                        <path d="M36.6799744,22.2509447 C36.6799744,36.0186043 28.320245,43.3176681 18.1211846,43.3176681 C7.56735359,43.3176681 0.155266511,35.1285617 0.155266511,23.0230298 C0.155266511,10.3229447 8.04117476,2.01468936 18.7140563,2.01468936 C29.6238485,2.01468936 36.6799744,10.3825191 36.6799744,22.2509447 Z M5.66968786,22.9038809 C5.66968786,31.4492426 10.2948016,39.1045617 18.4176205,39.1045617 C26.5999646,39.1045617 31.2250783,31.5683915 31.2250783,22.4880511 C31.2250783,14.5360511 27.0749763,6.22898723 18.4771457,6.22898723 C9.93884049,6.22898723 5.66968786,14.1214128 5.66968786,22.9038809 Z" id="Fill-10"></path>
                    </g>
                </g>
            </g>
        </g>
    </g>
</svg>