<?xml version="1.0" encoding="UTF-8" standalone="no"?>
<svg width="173px" height="40px" viewBox="0 0 173 40" version="1.1" xmlns="http://www.w3.org/2000/svg" xmlns:xlink="http://www.w3.org/1999/xlink" xmlns:sketch="http://www.bohemiancoding.com/sketch/ns">
    <!-- Generator: sketchtool 3.5.2 (25235) - http://www.bohemiancoding.com/sketch -->
    <title>Logo</title>
    <desc>Created with sketchtool.</desc>
    <defs>
        <linearGradient x1="57.1743152%" y1="0%" x2="57.1743131%" y2="100%" id="linearGradient-1">
            <stop stop-color="#19A69B" offset="0%"></stop>
            <stop stop-color="#10887C" offset="100%"></stop>
        </linearGradient>
        <linearGradient x1="94.3614006%" y1="13.7154081%" x2="7.38710106%" y2="86.5145781%" id="linearGradient-2">
            <stop stop-color="#44A7F0" offset="0%"></stop>
            <stop stop-color="#2F8CEC" offset="100%"></stop>
        </linearGradient>
        <linearGradient x1="7.3832108%" y1="12.8236372%" x2="94.0231838%" y2="84.8209184%" id="linearGradient-3">
            <stop stop-color="#FB8E31" offset="0%"></stop>
            <stop stop-color="#FB7725" offset="71.0176163%"></stop>
            <stop stop-color="#FA6D21" offset="100%"></stop>
        </linearGradient>
    </defs>
    <g id="Homepage" stroke="none" stroke-width="1" fill="none" fill-rule="evenodd" sketch:type="MSPage">
        <g id="Desktop-Retina" sketch:type="MSArtboardGroup" transform="translate(-44.000000, -44.000000)">
            <g id="Header" sketch:type="MSLayerGroup" transform="translate(44.000000, 35.000000)">
                <g id="Logo" transform="translate(0.000000, 9.000000)" sketch:type="MSShapeGroup">
                    <g id="Logo-Mark">
                        <path d="M12.7795745,0.366808511 C12.2374468,0.366808511 11.8,0.805106383 11.8,1.34553191 L11.8,1.34553191 L11.8,32.5429787 C11.8,33.0842553 12.2374468,33.5225532 12.7795745,33.5225532 L12.7795745,33.5225532 L19.267234,33.5225532 C19.8085106,33.5225532 20.2468085,33.0842553 20.2468085,32.5429787 L20.2468085,32.5429787 L20.2468085,1.34553191 C20.2468085,0.805106383 19.8085106,0.366808511 19.267234,0.366808511 L19.267234,0.366808511 L12.7795745,0.366808511 Z" id="teal" fill="url(#linearGradient-1)"></path>
                        <path d="M27.2229787,5.29531915 L0.475744681,21.3514894 C0.0119148936,21.6297872 -0.138723404,22.2323404 0.140425532,22.6953191 L0.140425532,22.6953191 L3.47914894,28.2587234 C3.75744681,28.7217021 4.35914894,28.8731915 4.82297872,28.5940426 L4.82297872,28.5940426 L31.5702128,12.5370213 C32.0348936,12.2595745 32.1846809,11.6570213 31.906383,11.1940426 L31.906383,11.1940426 L28.5668085,5.6306383 C28.3829787,5.32510638 28.0587234,5.15489362 27.7259574,5.15489362 L27.7259574,5.15489362 C27.5548936,5.15489362 27.3804255,5.2 27.2229787,5.29531915" id="blue" fill="url(#linearGradient-2)"></path>
                        <path d="M3.47914894,5.6306383 L0.140425532,11.1940426 C-0.138723404,11.6570213 0.0119148936,12.2595745 0.475744681,12.5370213 L0.475744681,12.5370213 L27.2229787,28.5940426 C27.6868085,28.8731915 28.2885106,28.7217021 28.5668085,28.2587234 L28.5668085,28.2587234 L31.906383,22.6953191 C32.1846809,22.2323404 32.0348936,21.6297872 31.5702128,21.3514894 L31.5702128,21.3514894 L4.82297872,5.29531915 C4.66553191,5.2 4.49191489,5.15489362 4.32,5.15489362 L4.32,5.15489362 C3.98723404,5.15489362 3.66297872,5.32510638 3.47914894,5.6306383" id="orange" fill="url(#linearGradient-3)"></path>
                    </g>
                    <g id="Logo-Type" transform="translate(45.106383, 0.000000)" fill="#58595B">
                        <path d="M126.501106,9.95940426 L123.898553,9.95940426 C123.63217,9.95940426 123.395574,10.128766 123.308766,10.3806809 L117.924936,26.0606809 C117.620255,24.9815319 113.19983,12.7772766 112.327489,10.3704681 C112.238128,10.1236596 112.003234,9.95940426 111.741106,9.95940426 L109.034723,9.95940426 C108.59217,9.95940426 108.290043,10.4070638 108.456,10.8172766 C110.003234,14.6419574 116.201532,29.9645106 116.371745,30.3619574 L113.193872,39.1645106 C113.047489,39.5713191 113.348766,40.0002553 113.781106,40.0002553 L115.908766,40.0002553 C116.170043,40.0002553 116.404085,39.8368511 116.494298,39.5917447 L127.086638,10.7985532 C127.236426,10.3917447 126.935149,9.95940426 126.501106,9.95940426" id="Fill-22"></path>
                        <path d="M104.548681,25.4049362 L104.548681,1.00408511 C104.548681,0.659404255 104.269532,0.379404255 103.924851,0.379404255 L101.442298,0.379404255 C101.097617,0.379404255 100.818468,0.659404255 100.818468,1.00408511 L100.818468,25.8628085 C100.818468,28.4100426 102.884,30.4747234 105.431234,30.4747234 L107.484851,30.4747234 C107.829532,30.4747234 108.108681,30.1955745 108.108681,29.8508936 L108.108681,28.1521702 C108.108681,27.8074894 107.829532,27.5283404 107.484851,27.5283404 L106.672085,27.5283404 C105.499319,27.5283404 104.548681,26.5777021 104.548681,25.4049362" id="Fill-20"></path>
                        <path d="M87.2128511,16.3599149 C87.2128511,14.2186383 87.1796596,12.3428936 87.0834894,10.6160851 C87.0639149,10.2594894 87.3490213,9.95906383 87.7064681,9.95906383 L89.7022128,9.95906383 C90.039234,9.95906383 90.3158298,10.2271489 90.3260426,10.5633191 L90.4341277,13.9862979 L90.6034894,13.9862979 C91.5362553,11.2314043 93.7830638,9.49268085 96.2834894,9.49268085 C96.585617,9.49268085 97.5788085,9.51480851 98.2485957,9.5573617 C98.5771064,9.5786383 98.8341277,9.85097872 98.8341277,10.1803404 L98.8341277,12.4509787 C98.8341277,12.8101277 98.5328511,13.095234 98.1745532,13.0739574 C97.4605106,13.0322553 96.4298723,13.0109787 96.0715745,13.0109787 C93.4434894,13.0109787 91.5788085,15.0033191 91.0698723,17.800766 C90.985617,18.3097021 90.9005106,18.9028936 90.9005106,19.5386383 L90.9005106,29.8509787 C90.9005106,30.1956596 90.6213617,30.4748085 90.2766809,30.4748085 L87.8366809,30.4748085 C87.492,30.4748085 87.2128511,30.1956596 87.2128511,29.8509787 L87.2128511,16.3599149 Z" id="Fill-14"></path>
                        <path d="M69.3245957,20.8956596 C69.4097021,25.9399149 72.6309787,28.0165106 76.3611915,28.0165106 C78.6250213,28.0165106 80.1271489,27.6811915 81.3841702,27.2182128 C81.7356596,27.088 82.1211915,27.2939574 82.208,27.6582128 L82.554383,29.1126809 C82.6258723,29.4148085 82.4667234,29.7237447 82.1782128,29.8377872 C80.8241702,30.3697021 78.7348085,30.8990638 75.8522553,30.8990638 C69.5365106,30.8990638 65.7637447,26.7450213 65.7637447,20.5560851 C65.7637447,14.368 69.4097021,9.49310638 75.3858723,9.49310638 C82.0837447,9.49310638 83.8633191,15.3850213 83.8633191,19.1577872 C83.8633191,19.6139574 83.8335319,20.0097021 83.8003404,20.3356596 C83.7671489,20.6539574 83.4990638,20.8956596 83.1790638,20.8956596 L69.3245957,20.8956596 Z M80.260766,18.2250213 C80.3033191,15.8514043 79.2854468,12.1637447 75.0897021,12.1637447 C71.3169362,12.1637447 69.6641702,15.6394894 69.3671489,18.2250213 L80.260766,18.2250213 Z" id="Fill-18"></path>
                        <path d="M62.1308936,0.379574468 C62.4755745,0.379574468 62.7547234,0.658723404 62.7547234,1.00340426 L62.7547234,25.1761702 C62.7547234,26.7293617 62.7853617,28.466383 62.8730213,29.8119149 C62.8968511,30.1710638 62.6108936,30.4748936 62.2500426,30.4748936 L60.1708936,30.4748936 C59.8372766,30.4748936 59.563234,30.213617 59.5470638,29.8808511 L59.4057872,26.9148936 L59.3215319,26.9148936 C58.1768511,29.2034043 55.6755745,30.9412766 52.3274894,30.9412766 C47.3674894,30.9412766 43.5530213,26.7446809 43.5530213,20.5140426 C43.5104681,13.6893617 47.749617,9.49276596 52.7513191,9.49276596 C55.8874894,9.49276596 58.0074894,10.9770213 58.9394043,12.6297872 L59.0245106,12.6297872 L59.0245106,1.00340426 C59.0245106,0.658723404 59.3036596,0.379574468 59.6483404,0.379574468 L62.1308936,0.379574468 Z M59.0245106,18.3097872 C59.0245106,17.8434043 58.9819574,17.2076596 58.8551489,16.7412766 C58.3036596,14.3676596 56.269617,12.4178723 53.4713191,12.4178723 C49.6142979,12.4178723 47.3257872,15.8085106 47.3257872,20.3446809 C47.3257872,24.4987234 49.3598298,27.9319149 53.3870638,27.9319149 C55.8874894,27.9319149 58.1768511,26.2782979 58.8551489,23.4808511 C58.9819574,22.972766 59.0245106,22.4638298 59.0245106,21.8706383 L59.0245106,18.3097872 Z" id="Fill-16"></path>
                        <path d="M31.5994894,16.3599149 C31.5994894,14.2186383 31.5662979,12.3428936 31.4701277,10.6160851 C31.4505532,10.2594894 31.7356596,9.95906383 32.0931064,9.95906383 L34.0888511,9.95906383 C34.4258723,9.95906383 34.7024681,10.2271489 34.7126809,10.5633191 L34.820766,13.9862979 L34.9901277,13.9862979 C35.9228936,11.2314043 38.1697021,9.49268085 40.6701277,9.49268085 C40.9722553,9.49268085 41.9654468,9.51480851 42.635234,9.5573617 C42.9637447,9.5786383 43.220766,9.85097872 43.220766,10.1803404 L43.220766,12.4509787 C43.220766,12.8101277 42.9194894,13.095234 42.5611915,13.0739574 C41.8471489,13.0322553 40.8165106,13.0109787 40.4582128,13.0109787 C37.8301277,13.0109787 35.9654468,15.0033191 35.4565106,17.800766 C35.3722553,18.3097021 35.2871489,18.9028936 35.2871489,19.5386383 L35.2871489,29.8509787 C35.2871489,30.1956596 35.008,30.4748085 34.6633191,30.4748085 L32.2233191,30.4748085 C31.8786383,30.4748085 31.5994894,30.1956596 31.5994894,29.8509787 L31.5994894,16.3599149 Z" id="Fill-12"></path>
                        <path d="M26.9365106,15.8935319 C26.9365106,25.7275745 20.9603404,30.9411915 13.6692766,30.9411915 C6.12459574,30.9411915 0.82587234,25.0918298 0.82587234,16.4450213 C0.82587234,7.37353191 6.46331915,1.43906383 14.0931064,1.43906383 C21.8922553,1.43906383 26.9365106,7.41608511 26.9365106,15.8935319 Z M4.768,16.3599149 C4.768,22.4637447 8.07438298,27.9318298 13.8811915,27.9318298 C19.7305532,27.9318298 23.0369362,22.5488511 23.0369362,16.0628936 C23.0369362,10.3828936 20.0701277,4.4492766 13.9237447,4.4492766 C7.81991489,4.4492766 4.768,10.0867234 4.768,16.3599149 Z" id="Fill-10"></path>
                    </g>
                </g>
            </g>
        </g>
    </g>
</svg>